<svg xmlns="http://www.w3.org/2000/svg" xmlns:xlink="http://www.w3.org/1999/xlink" width="120" zoomAndPan="magnify" viewBox="0 0 90 89.999999" height="120" preserveAspectRatio="xMidYMid meet" version="1.0"><defs><clipPath id="id1"><path d="M 12.652344 30 L 16 30 L 16 34 L 12.652344 34 Z M 12.652344 30 " clip-rule="nonzero"/></clipPath><clipPath id="id2"><path d="M 30 14.636719 L 77.152344 14.636719 L 77.152344 75.386719 L 30 75.386719 Z M 30 14.636719 " clip-rule="nonzero"/></clipPath></defs><rect x="-9" width="108" fill="#ffffff" y="-9" height="107.999999" fill-opacity="1"/><rect x="-9" width="108" fill="#ffffff" y="-9" height="107.999999" fill-opacity="1"/><rect x="-9" width="108" fill="#ffffff" y="-9" height="107.999999" fill-opacity="1"/><g clip-path="url(#id1)"><path fill="#ff914d" d="M 13.800781 33.71875 L 15.496094 32.019531 L 14.800781 31.320312 C 14.589844 31.109375 14.320312 30.996094 14.042969 30.972656 C 14.015625 30.972656 13.984375 30.972656 13.957031 30.972656 C 13.945312 30.972656 13.933594 30.972656 13.925781 30.972656 C 13.878906 30.972656 13.835938 30.976562 13.789062 30.984375 C 13.539062 31.015625 13.296875 31.128906 13.105469 31.324219 C 13.058594 31.371094 13.015625 31.421875 12.976562 31.476562 C 12.898438 31.585938 12.839844 31.707031 12.804688 31.832031 C 12.796875 31.855469 12.789062 31.882812 12.785156 31.90625 C 12.695312 32.296875 12.804688 32.722656 13.105469 33.023438 L 13.800781 33.71875 " fill-opacity="1" fill-rule="nonzero"/></g><g clip-path="url(#id2)"><path fill="#ff914d" d="M 30.117188 14.636719 L 30.117188 39 L 30.148438 39.039062 L 30.160156 39.050781 L 30.210938 39.117188 L 30.214844 39.117188 L 30.21875 39.121094 L 30.222656 39.132812 L 30.226562 39.132812 L 30.273438 39.191406 L 30.289062 39.207031 L 30.328125 39.253906 L 30.339844 39.269531 L 30.34375 39.277344 L 30.386719 39.324219 L 30.402344 39.34375 L 30.4375 39.382812 L 30.445312 39.394531 L 30.457031 39.40625 L 30.488281 39.441406 L 30.507812 39.464844 L 30.539062 39.5 L 30.554688 39.519531 L 30.585938 39.550781 L 30.589844 39.558594 L 30.601562 39.570312 L 30.625 39.597656 L 30.644531 39.613281 L 30.664062 39.640625 L 30.675781 39.648438 L 30.703125 39.675781 L 30.707031 39.683594 L 30.773438 39.75 L 30.789062 39.761719 L 30.820312 39.792969 C 30.914062 39.863281 31.015625 39.941406 31.140625 40.023438 C 31.273438 40.109375 31.417969 40.203125 31.539062 40.277344 L 31.683594 40.367188 C 31.835938 40.460938 31.992188 40.558594 32.144531 40.65625 L 32.203125 40.695312 C 32.21875 40.703125 32.234375 40.714844 32.25 40.722656 L 32.25 16.773438 L 74.980469 16.773438 L 74.980469 73.246094 L 32.25 73.246094 L 32.25 56.710938 L 30.136719 54.589844 L 30.285156 54.441406 L 30.117188 54.277344 L 30.117188 75.386719 L 77.113281 75.386719 L 77.113281 14.636719 L 30.117188 14.636719 " fill-opacity="1" fill-rule="nonzero"/></g><path fill="#ff914d" d="M 70.671875 29.101562 L 53.617188 29.101562 L 53.617188 31.242188 L 70.671875 31.242188 L 70.671875 29.101562 " fill-opacity="1" fill-rule="nonzero"/><path fill="#ff914d" d="M 36.5625 39.082031 L 70.671875 39.082031 L 70.671875 36.945312 L 36.5625 36.945312 L 36.5625 39.082031 " fill-opacity="1" fill-rule="nonzero"/><path fill="#ff914d" d="M 36.5625 46.925781 L 70.671875 46.925781 L 70.671875 44.789062 L 36.5625 44.789062 L 36.5625 46.925781 " fill-opacity="1" fill-rule="nonzero"/><path fill="#ff914d" d="M 70.671875 52.628906 L 40.503906 52.628906 L 42.636719 54.769531 L 70.671875 54.769531 L 70.671875 52.628906 " fill-opacity="1" fill-rule="nonzero"/><path fill="#ff914d" d="M 21.789062 36.523438 L 19.917969 34.644531 L 18.050781 32.769531 L 16.953125 31.671875 L 16.050781 32.574219 L 14.355469 34.277344 L 13.800781 34.835938 L 13.453125 35.183594 L 18.289062 40.035156 L 18.363281 39.960938 L 21.71875 36.597656 L 21.789062 36.523438 " fill-opacity="1" fill-rule="nonzero"/><path fill="#ff914d" d="M 24.078125 37.402344 C 25.574219 38.902344 26.976562 40.578125 28.554688 41.984375 C 28.800781 42.203125 29.070312 42.40625 29.351562 42.582031 C 29.449219 42.640625 29.542969 42.695312 29.640625 42.75 C 29.6875 42.777344 29.738281 42.800781 29.785156 42.824219 C 29.832031 42.847656 29.878906 42.867188 29.925781 42.890625 C 29.949219 42.902344 29.972656 42.914062 29.996094 42.921875 C 30.039062 42.941406 30.078125 42.957031 30.117188 42.972656 C 30.140625 42.980469 30.164062 42.992188 30.1875 43 C 30.261719 43.027344 30.335938 43.054688 30.414062 43.078125 C 30.511719 43.105469 30.609375 43.132812 30.710938 43.15625 C 30.765625 43.167969 30.816406 43.175781 30.871094 43.1875 C 30.917969 43.195312 30.964844 43.199219 31.015625 43.207031 C 31.109375 43.21875 31.207031 43.222656 31.304688 43.226562 C 31.324219 43.226562 31.34375 43.226562 31.363281 43.226562 C 31.585938 43.226562 31.808594 43.199219 32.03125 43.144531 C 32.042969 43.140625 32.054688 43.136719 32.0625 43.132812 C 32.066406 43.132812 32.070312 43.132812 32.074219 43.128906 C 32.082031 43.128906 32.089844 43.125 32.097656 43.121094 C 32.101562 43.121094 32.105469 43.117188 32.109375 43.117188 C 32.113281 43.113281 32.121094 43.109375 32.125 43.105469 C 32.128906 43.101562 32.132812 43.097656 32.136719 43.097656 C 32.140625 43.09375 32.140625 43.09375 32.144531 43.089844 C 32.148438 43.085938 32.152344 43.082031 32.15625 43.074219 C 32.214844 42.992188 32.136719 42.882812 32.0625 42.8125 C 31.808594 42.578125 31.527344 42.378906 31.238281 42.1875 C 31.21875 42.175781 31.203125 42.167969 31.183594 42.15625 C 30.992188 42.03125 30.796875 41.914062 30.605469 41.792969 C 30.453125 41.699219 30.300781 41.605469 30.152344 41.503906 C 30.140625 41.496094 30.128906 41.488281 30.117188 41.480469 C 29.980469 41.386719 29.847656 41.292969 29.71875 41.191406 C 29.707031 41.179688 29.691406 41.167969 29.679688 41.15625 C 29.675781 41.152344 29.671875 41.152344 29.667969 41.148438 C 29.65625 41.136719 29.644531 41.128906 29.636719 41.121094 C 29.628906 41.117188 29.625 41.109375 29.617188 41.105469 C 29.609375 41.097656 29.601562 41.089844 29.59375 41.082031 C 29.585938 41.074219 29.578125 41.070312 29.574219 41.0625 C 29.5625 41.054688 29.554688 41.046875 29.546875 41.035156 C 29.539062 41.03125 29.53125 41.023438 29.527344 41.019531 C 29.515625 41.007812 29.507812 41 29.5 40.992188 C 29.492188 40.984375 29.484375 40.976562 29.476562 40.96875 C 29.46875 40.960938 29.457031 40.949219 29.449219 40.941406 C 29.449219 40.9375 29.445312 40.9375 29.445312 40.9375 C 29.4375 40.929688 29.433594 40.925781 29.425781 40.917969 C 29.417969 40.910156 29.40625 40.898438 29.398438 40.886719 C 29.390625 40.878906 29.382812 40.871094 29.375 40.863281 C 29.363281 40.851562 29.355469 40.84375 29.34375 40.832031 C 29.335938 40.824219 29.328125 40.816406 29.324219 40.808594 C 29.3125 40.796875 29.300781 40.785156 29.289062 40.773438 C 29.28125 40.761719 29.277344 40.753906 29.269531 40.746094 C 29.257812 40.734375 29.246094 40.722656 29.234375 40.710938 C 29.226562 40.699219 29.21875 40.691406 29.210938 40.683594 C 29.199219 40.671875 29.1875 40.65625 29.175781 40.644531 C 29.167969 40.636719 29.160156 40.628906 29.152344 40.617188 C 29.140625 40.605469 29.128906 40.589844 29.117188 40.574219 C 29.109375 40.566406 29.101562 40.558594 29.09375 40.550781 C 29.082031 40.535156 29.070312 40.519531 29.054688 40.503906 C 29.046875 40.496094 29.042969 40.488281 29.035156 40.480469 C 29.019531 40.464844 29.003906 40.445312 28.992188 40.429688 C 28.984375 40.421875 28.980469 40.414062 28.972656 40.410156 C 28.957031 40.390625 28.941406 40.371094 28.925781 40.351562 C 28.921875 40.34375 28.914062 40.339844 28.910156 40.332031 C 28.894531 40.3125 28.875 40.292969 28.859375 40.269531 C 28.855469 40.265625 28.851562 40.261719 28.847656 40.253906 C 28.828125 40.234375 28.808594 40.210938 28.789062 40.183594 C 28.785156 40.183594 28.78125 40.179688 28.78125 40.175781 C 28.757812 40.152344 28.738281 40.125 28.714844 40.097656 C 28.714844 40.097656 28.714844 40.09375 28.714844 40.09375 C 26.828125 37.78125 23.398438 32.925781 20.652344 31.972656 C 20.621094 31.960938 20.589844 31.953125 20.558594 31.941406 C 20.558594 31.941406 20.554688 31.941406 20.550781 31.941406 C 20.523438 31.929688 20.496094 31.921875 20.464844 31.914062 C 20.460938 31.914062 20.457031 31.910156 20.453125 31.910156 C 20.425781 31.902344 20.398438 31.894531 20.371094 31.886719 C 20.363281 31.886719 20.359375 31.886719 20.351562 31.882812 C 20.328125 31.878906 20.300781 31.871094 20.277344 31.867188 C 20.269531 31.863281 20.261719 31.863281 20.253906 31.863281 C 20.230469 31.855469 20.207031 31.851562 20.179688 31.847656 C 20.171875 31.847656 20.164062 31.84375 20.15625 31.84375 C 20.132812 31.839844 20.109375 31.835938 20.085938 31.832031 C 20.078125 31.832031 20.070312 31.832031 20.058594 31.828125 C 20.035156 31.824219 20.015625 31.824219 19.992188 31.820312 C 19.984375 31.820312 19.972656 31.820312 19.964844 31.816406 C 19.941406 31.816406 19.921875 31.816406 19.898438 31.8125 C 19.886719 31.8125 19.878906 31.8125 19.867188 31.8125 C 19.847656 31.8125 19.828125 31.808594 19.804688 31.808594 C 19.792969 31.808594 19.785156 31.808594 19.773438 31.808594 C 19.769531 31.808594 19.765625 31.808594 19.761719 31.808594 C 19.746094 31.808594 19.730469 31.808594 19.710938 31.808594 C 19.703125 31.808594 19.691406 31.808594 19.679688 31.8125 C 19.660156 31.8125 19.640625 31.8125 19.621094 31.8125 C 19.609375 31.8125 19.597656 31.816406 19.585938 31.816406 C 19.566406 31.816406 19.546875 31.820312 19.53125 31.820312 C 19.515625 31.824219 19.503906 31.824219 19.492188 31.828125 C 19.476562 31.828125 19.457031 31.832031 19.4375 31.835938 C 19.425781 31.835938 19.414062 31.839844 19.402344 31.839844 C 19.382812 31.84375 19.367188 31.847656 19.347656 31.851562 C 19.335938 31.855469 19.324219 31.855469 19.3125 31.859375 C 19.292969 31.863281 19.277344 31.867188 19.261719 31.871094 C 19.246094 31.875 19.234375 31.878906 19.222656 31.882812 C 19.207031 31.886719 19.1875 31.894531 19.171875 31.898438 C 19.160156 31.902344 19.144531 31.90625 19.132812 31.914062 C 19.117188 31.917969 19.101562 31.921875 19.085938 31.929688 C 19.070312 31.933594 19.058594 31.941406 19.046875 31.945312 C 19.03125 31.949219 19.015625 31.957031 19 31.964844 C 18.984375 31.96875 18.972656 31.976562 18.957031 31.984375 C 18.945312 31.988281 18.929688 31.996094 18.914062 32.003906 C 18.898438 32.011719 18.886719 32.019531 18.871094 32.027344 C 18.859375 32.03125 18.84375 32.039062 18.832031 32.046875 C 18.816406 32.054688 18.800781 32.066406 18.785156 32.074219 C 18.773438 32.082031 18.761719 32.089844 18.746094 32.097656 C 18.730469 32.105469 18.714844 32.117188 18.699219 32.128906 C 18.6875 32.136719 18.675781 32.144531 18.664062 32.152344 C 18.648438 32.164062 18.628906 32.175781 18.609375 32.191406 C 18.605469 32.195312 18.601562 32.199219 18.59375 32.203125 L 21.839844 35.457031 C 22.425781 35.871094 23.164062 36.488281 24.078125 37.402344 " fill-opacity="1" fill-rule="nonzero"/><path fill="#ff914d" d="M 47.480469 65.8125 L 46.914062 64.519531 L 46.804688 64.273438 L 45.949219 65.132812 L 46.191406 65.238281 L 47.480469 65.8125 " fill-opacity="1" fill-rule="nonzero"/><path fill="#ff914d" d="M 45.523438 64.800781 L 46.472656 63.84375 L 44.296875 59.34375 L 43.9375 58.59375 L 40.289062 62.253906 L 41.035156 62.617188 L 45.523438 64.800781 " fill-opacity="1" fill-rule="nonzero"/><path fill="#ff914d" d="M 36.152344 51.078125 L 32.796875 54.441406 L 32.648438 54.589844 L 39.867188 61.832031 L 43.515625 58.171875 L 36.296875 50.929688 L 36.152344 51.078125 " fill-opacity="1" fill-rule="nonzero"/><path fill="#ff914d" d="M 32.242188 53.886719 L 32.25 53.878906 L 35.59375 50.519531 L 32.25 47.164062 L 30.117188 45.027344 L 22.273438 37.152344 L 18.917969 40.519531 L 30.117188 51.753906 L 32.242188 53.886719 " fill-opacity="1" fill-rule="nonzero"/><path fill="#ff914d" d="M 53.859375 65.324219 C 53.992188 65.558594 54.214844 65.714844 54.488281 65.761719 C 54.949219 65.84375 55.425781 65.609375 55.691406 65.382812 C 55.746094 65.335938 55.804688 65.289062 55.859375 65.238281 C 56.078125 65.042969 56.304688 64.839844 56.476562 64.863281 C 56.640625 64.882812 56.765625 65.097656 56.949219 65.441406 C 57.152344 65.824219 57.40625 66.300781 57.921875 66.476562 C 58.382812 66.636719 58.824219 66.476562 59.183594 66.34375 L 59.21875 66.332031 C 61.085938 65.65625 63.148438 65.636719 65.023438 66.28125 C 65.257812 66.363281 65.507812 66.238281 65.589844 66.003906 C 65.667969 65.773438 65.542969 65.519531 65.3125 65.441406 C 63.246094 64.730469 60.972656 64.75 58.917969 65.492188 L 58.878906 65.507812 C 58.632812 65.597656 58.375 65.691406 58.210938 65.632812 C 58.027344 65.570312 57.882812 65.304688 57.730469 65.019531 C 57.503906 64.59375 57.21875 64.0625 56.597656 63.980469 C 56.019531 63.902344 55.605469 64.273438 55.269531 64.570312 C 55.21875 64.613281 55.171875 64.660156 55.121094 64.699219 C 54.921875 64.867188 54.679688 64.90625 54.628906 64.882812 C 54.609375 64.847656 54.609375 64.714844 54.613281 64.644531 C 54.636719 62.964844 54.542969 61.019531 53.660156 59.335938 C 53.46875 58.972656 53.191406 58.527344 52.703125 58.308594 C 52.328125 58.136719 51.691406 58.050781 50.78125 58.582031 C 48.332031 60.011719 47.164062 63.332031 48.171875 65.988281 C 48.492188 66.835938 49.179688 67.621094 50.035156 67.621094 C 50.121094 67.621094 50.210938 67.613281 50.304688 67.59375 C 50.542969 67.550781 50.703125 67.316406 50.65625 67.074219 C 50.613281 66.832031 50.378906 66.671875 50.140625 66.71875 C 49.683594 66.804688 49.222656 66.257812 49 65.671875 C 48.140625 63.40625 49.140625 60.570312 51.226562 59.351562 C 51.550781 59.164062 52.003906 58.972656 52.335938 59.121094 C 52.523438 59.203125 52.691406 59.398438 52.875 59.75 C 53.664062 61.257812 53.746094 63.066406 53.722656 64.632812 C 53.722656 64.820312 53.71875 65.078125 53.859375 65.324219 " fill-opacity="1" fill-rule="nonzero"/></svg>