<svg xmlns="http://www.w3.org/2000/svg" xmlns:xlink="http://www.w3.org/1999/xlink" width="120" zoomAndPan="magnify" viewBox="0 0 90 89.999999" height="120" preserveAspectRatio="xMidYMid meet" version="1.0"><defs><clipPath id="id1"><path d="M 10.226562 18.003906 L 79.976562 18.003906 L 79.976562 72.003906 L 10.226562 72.003906 Z M 10.226562 18.003906 " clip-rule="nonzero"/></clipPath></defs><rect x="-9" width="108" fill="#ffffff" y="-9" height="107.999999" fill-opacity="1"/><rect x="-9" width="108" fill="#ffffff" y="-9" height="107.999999" fill-opacity="1"/><rect x="-9" width="108" fill="#ffffff" y="-9" height="107.999999" fill-opacity="1"/><g clip-path="url(#id1)"><path fill="#ff914d" d="M 19.433594 72.003906 C 18.660156 72.003906 18.042969 71.371094 18.042969 70.613281 C 18.042969 66.625 18.265625 63.566406 19.070312 61.074219 L 11.621094 61.074219 C 10.863281 61.074219 10.230469 60.441406 10.230469 59.683594 C 10.230469 55.996094 10.609375 53.753906 12.398438 51.972656 C 13.929688 50.445312 16.382812 49.464844 20.496094 48.332031 C 19.101562 47.304688 18.058594 45.476562 17.570312 43.425781 C 17.21875 42.007812 17.125 40.476562 17.316406 39.007812 C 17.519531 37.496094 18.058594 36.027344 18.976562 34.878906 C 20.195312 33.332031 22.042969 32.339844 24.636719 32.339844 C 27.230469 32.339844 29.082031 33.332031 30.300781 34.878906 C 31.21875 36.027344 31.753906 37.496094 31.960938 39.007812 C 32.167969 40.476562 32.054688 42.007812 31.707031 43.425781 C 31.21875 45.476562 30.1875 47.304688 28.796875 48.332031 C 29.921875 48.628906 30.933594 48.945312 31.816406 49.246094 C 32.847656 49.59375 33.714844 49.9375 34.476562 50.316406 C 35.742188 49.921875 37.117188 49.542969 38.585938 49.132812 L 38.585938 47.683594 C 35.675781 46.074219 33.480469 42.417969 32.464844 38.222656 C 31.816406 35.585938 31.628906 32.734375 31.992188 30.003906 C 32.371094 27.230469 33.335938 24.59375 34.996094 22.496094 C 37.164062 19.785156 40.453125 18.003906 45.101562 18.003906 C 49.753906 18.003906 53.042969 19.785156 55.210938 22.496094 C 56.871094 24.59375 57.835938 27.230469 58.214844 30.003906 C 58.578125 32.734375 58.386719 35.585938 57.738281 38.222656 C 56.726562 42.417969 54.527344 46.074219 51.621094 47.683594 L 51.621094 49.132812 C 53.089844 49.542969 54.464844 49.921875 55.730469 50.316406 C 56.492188 49.9375 57.359375 49.59375 58.386719 49.246094 C 59.273438 48.945312 60.285156 48.644531 61.410156 48.332031 C 60.015625 47.304688 58.988281 45.476562 58.5 43.425781 C 58.152344 42.007812 58.039062 40.476562 58.246094 39.007812 C 58.453125 37.496094 58.988281 36.027344 59.90625 34.878906 C 61.125 33.332031 62.976562 32.339844 65.570312 32.339844 C 68.164062 32.339844 70.011719 33.332031 71.230469 34.878906 C 72.148438 36.027344 72.683594 37.496094 72.890625 39.007812 C 73.082031 40.476562 72.984375 42.007812 72.636719 43.425781 C 72.148438 45.476562 71.105469 47.304688 69.710938 48.332031 C 73.824219 49.464844 76.277344 50.445312 77.808594 51.972656 C 79.597656 53.753906 79.976562 55.996094 79.976562 59.683594 C 79.976562 60.441406 79.34375 61.074219 78.585938 61.074219 L 71.136719 61.074219 C 71.941406 63.566406 72.164062 66.625 72.164062 70.613281 C 72.164062 71.371094 71.546875 72.003906 70.773438 72.003906 Z M 69.363281 69.210938 C 69.300781 65.378906 68.96875 62.617188 67.894531 60.503906 C 67.8125 60.394531 67.75 60.269531 67.703125 60.144531 C 67.339844 59.480469 66.882812 58.867188 66.3125 58.3125 C 63.671875 55.679688 58.71875 53.914062 49.925781 51.5625 C 49.292969 51.4375 48.820312 50.871094 48.820312 50.207031 L 48.820312 46.800781 C 48.820312 46.25 49.167969 45.726562 49.707031 45.507812 C 52.1875 44.546875 54.117188 41.359375 55.035156 37.574219 C 55.605469 35.257812 55.777344 32.75 55.445312 30.382812 C 55.144531 28.082031 54.371094 25.902344 53.027344 24.230469 C 51.367188 22.152344 48.804688 20.792969 45.101562 20.792969 C 41.402344 20.792969 38.839844 22.152344 37.179688 24.230469 C 35.835938 25.902344 35.058594 28.082031 34.761719 30.382812 C 34.429688 32.75 34.601562 35.257812 35.171875 37.574219 C 36.074219 41.328125 37.988281 44.480469 40.421875 45.476562 C 40.976562 45.664062 41.386719 46.183594 41.386719 46.800781 L 41.386719 50.207031 C 41.386719 50.820312 40.976562 51.375 40.34375 51.546875 C 31.503906 53.914062 26.535156 55.664062 23.894531 58.3125 C 23.324219 58.867188 22.867188 59.480469 22.503906 60.144531 C 22.457031 60.269531 22.390625 60.394531 22.3125 60.488281 C 21.238281 62.617188 20.90625 65.378906 20.84375 69.210938 Z M 20.351562 58.28125 C 20.796875 57.605469 21.300781 56.957031 21.917969 56.359375 C 23.785156 54.496094 26.441406 53.0625 30.316406 51.671875 C 29.320312 51.359375 28.179688 51.027344 26.867188 50.679688 C 26.25 50.507812 25.839844 49.953125 25.839844 49.339844 L 25.839844 47.621094 C 25.839844 47.003906 26.234375 46.484375 26.789062 46.296875 C 27.800781 45.855469 28.609375 44.449219 29.003906 42.777344 C 29.273438 41.675781 29.351562 40.492188 29.207031 39.386719 C 29.066406 38.332031 28.71875 37.355469 28.117188 36.597656 C 27.40625 35.699219 26.28125 35.113281 24.636719 35.113281 C 23.007812 35.113281 21.871094 35.699219 21.160156 36.597656 C 20.558594 37.355469 20.210938 38.332031 20.066406 39.386719 C 19.925781 40.492188 20.003906 41.675781 20.273438 42.777344 C 20.683594 44.496094 21.523438 45.917969 22.550781 46.328125 C 23.105469 46.53125 23.4375 47.054688 23.4375 47.621094 L 23.4375 49.339844 C 23.4375 50.003906 22.960938 50.570312 22.328125 50.695312 C 18.011719 51.847656 15.609375 52.699219 14.375 53.929688 C 13.441406 54.859375 13.125 56.183594 13.046875 58.28125 Z M 59.890625 51.671875 C 63.765625 53.0625 66.421875 54.496094 68.289062 56.359375 C 68.90625 56.957031 69.410156 57.605469 69.855469 58.28125 L 77.160156 58.28125 C 77.082031 56.183594 76.765625 54.859375 75.832031 53.929688 C 74.597656 52.699219 72.195312 51.847656 67.878906 50.695312 C 67.246094 50.570312 66.769531 50.003906 66.769531 49.339844 L 66.769531 47.621094 C 66.769531 47.054688 67.101562 46.53125 67.65625 46.328125 C 68.683594 45.917969 69.523438 44.496094 69.933594 42.777344 C 70.203125 41.691406 70.28125 40.492188 70.140625 39.386719 C 69.996094 38.332031 69.648438 37.355469 69.046875 36.597656 C 68.335938 35.699219 67.199219 35.113281 65.570312 35.113281 C 63.921875 35.113281 62.800781 35.699219 62.089844 36.597656 C 61.488281 37.355469 61.140625 38.332031 60.996094 39.386719 C 60.855469 40.492188 60.933594 41.675781 61.203125 42.777344 C 61.597656 44.449219 62.40625 45.855469 63.417969 46.296875 C 63.972656 46.484375 64.367188 47.003906 64.367188 47.621094 L 64.367188 49.339844 C 64.367188 49.953125 63.957031 50.507812 63.339844 50.679688 C 62.027344 51.027344 60.886719 51.359375 59.890625 51.671875 Z M 59.890625 51.671875 " fill-opacity="1" fill-rule="nonzero"/></g></svg>