<svg xmlns="http://www.w3.org/2000/svg" xmlns:xlink="http://www.w3.org/1999/xlink" width="120" zoomAndPan="magnify" viewBox="0 0 90 89.999999" height="120" preserveAspectRatio="xMidYMid meet" version="1.0"><defs><clipPath id="id1"><path d="M 34 9.636719 L 56 9.636719 L 56 30 L 34 30 Z M 34 9.636719 " clip-rule="nonzero"/></clipPath><clipPath id="id2"><path d="M 9.636719 48 L 24 48 L 24 80.136719 L 9.636719 80.136719 Z M 9.636719 48 " clip-rule="nonzero"/></clipPath><clipPath id="id3"><path d="M 66 48 L 80.136719 48 L 80.136719 80.136719 L 66 80.136719 Z M 66 48 " clip-rule="nonzero"/></clipPath></defs><g clip-path="url(#id1)"><path fill="#ffffff" d="M 48.40625 21.484375 L 48.40625 29.695312 L 50.753906 29.695312 L 50.753906 22.660156 L 54.273438 22.660156 C 54.734375 22.660156 55.152344 22.386719 55.339844 21.964844 C 55.53125 21.546875 55.457031 21.050781 55.148438 20.707031 L 45.765625 10.148438 C 45.316406 9.648438 44.457031 9.648438 44.011719 10.148438 L 34.625 20.707031 C 34.320312 21.050781 34.242188 21.546875 34.433594 21.964844 C 34.621094 22.386719 35.039062 22.660156 35.503906 22.660156 L 39.023438 22.660156 L 39.023438 29.695312 L 41.367188 29.695312 L 41.367188 21.484375 C 41.367188 20.835938 40.84375 20.3125 40.195312 20.3125 L 38.117188 20.3125 L 44.886719 12.691406 L 51.660156 20.3125 L 49.578125 20.3125 C 48.933594 20.3125 48.40625 20.835938 48.40625 21.484375 Z M 48.40625 21.484375 " fill-opacity="1" fill-rule="nonzero"/></g><g clip-path="url(#id2)"><path fill="#ffffff" d="M 10.34375 68.285156 L 12.042969 69.132812 L 12.042969 78.964844 C 12.042969 79.613281 12.566406 80.136719 13.214844 80.136719 L 20.253906 80.136719 C 20.902344 80.136719 21.425781 79.613281 21.425781 78.964844 L 21.425781 69.132812 L 23.125 68.28125 C 23.523438 68.085938 23.773438 67.679688 23.773438 67.234375 L 23.773438 61.367188 C 23.773438 59.023438 22.378906 57.007812 20.382812 56.070312 C 21.027344 55.269531 21.425781 54.261719 21.425781 53.15625 C 21.425781 50.570312 19.320312 48.464844 16.734375 48.464844 C 14.148438 48.464844 12.042969 50.570312 12.042969 53.15625 C 12.042969 54.261719 12.445312 55.269531 13.085938 56.070312 C 11.089844 57.007812 9.695312 59.023438 9.695312 61.367188 L 9.695312 67.234375 C 9.695312 67.679688 9.945312 68.085938 10.34375 68.285156 Z M 16.734375 50.8125 C 18.027344 50.8125 19.082031 51.863281 19.082031 53.15625 C 19.082031 54.453125 18.027344 55.503906 16.734375 55.503906 C 15.441406 55.503906 14.386719 54.453125 14.386719 53.15625 C 14.386719 51.863281 15.441406 50.8125 16.734375 50.8125 Z M 12.042969 61.367188 C 12.042969 59.429688 13.621094 57.851562 15.5625 57.851562 L 17.90625 57.851562 C 19.847656 57.851562 21.425781 59.429688 21.425781 61.367188 L 21.425781 66.507812 L 19.730469 67.359375 C 19.332031 67.554688 19.082031 67.960938 19.082031 68.40625 L 19.082031 77.792969 L 14.386719 77.792969 L 14.386719 68.40625 C 14.386719 67.960938 14.136719 67.554688 13.738281 67.355469 L 12.042969 66.507812 Z M 12.042969 61.367188 " fill-opacity="1" fill-rule="nonzero"/></g><g clip-path="url(#id3)"><path fill="#ffffff" d="M 76.6875 56.070312 C 77.332031 55.269531 77.734375 54.261719 77.734375 53.15625 C 77.734375 50.570312 75.628906 48.464844 73.039062 48.464844 C 70.453125 48.464844 68.347656 50.570312 68.347656 53.15625 C 68.347656 54.261719 68.75 55.269531 69.390625 56.070312 C 67.394531 57.007812 66.003906 59.023438 66.003906 61.367188 L 66.003906 67.234375 C 66.003906 67.679688 66.253906 68.085938 66.652344 68.285156 L 68.347656 69.132812 L 68.347656 78.964844 C 68.347656 79.613281 68.875 80.136719 69.519531 80.136719 L 76.558594 80.136719 C 77.207031 80.136719 77.734375 79.613281 77.734375 78.964844 L 77.734375 69.132812 L 79.429688 68.28125 C 79.828125 68.085938 80.078125 67.679688 80.078125 67.234375 L 80.078125 61.367188 C 80.078125 59.023438 78.683594 57.007812 76.6875 56.070312 Z M 73.039062 50.8125 C 74.335938 50.8125 75.386719 51.863281 75.386719 53.15625 C 75.386719 54.453125 74.335938 55.503906 73.039062 55.503906 C 71.746094 55.503906 70.695312 54.453125 70.695312 53.15625 C 70.695312 51.863281 71.746094 50.8125 73.039062 50.8125 Z M 77.734375 66.507812 L 76.035156 67.359375 C 75.636719 67.554688 75.386719 67.960938 75.386719 68.40625 L 75.386719 77.792969 L 70.695312 77.792969 L 70.695312 68.40625 C 70.695312 67.960938 70.445312 67.554688 70.046875 67.355469 L 68.347656 66.507812 L 68.347656 61.367188 C 68.347656 59.429688 69.925781 57.851562 71.867188 57.851562 L 74.214844 57.851562 C 76.152344 57.851562 77.734375 59.429688 77.734375 61.367188 Z M 77.734375 66.507812 " fill-opacity="1" fill-rule="nonzero"/></g><path fill="#ffffff" d="M 43.714844 69.582031 L 46.058594 69.582031 L 46.058594 71.925781 L 43.714844 71.925781 Z M 43.714844 69.582031 " fill-opacity="1" fill-rule="nonzero"/><path fill="#ffffff" d="M 43.714844 74.273438 L 46.058594 74.273438 L 46.058594 76.617188 L 43.714844 76.617188 Z M 43.714844 74.273438 " fill-opacity="1" fill-rule="nonzero"/><path fill="#ffffff" d="M 48.40625 74.273438 L 50.753906 74.273438 L 50.753906 76.617188 L 48.40625 76.617188 Z M 48.40625 74.273438 " fill-opacity="1" fill-rule="nonzero"/><path fill="#ffffff" d="M 53.097656 74.273438 L 55.445312 74.273438 L 55.445312 76.617188 L 53.097656 76.617188 Z M 53.097656 74.273438 " fill-opacity="1" fill-rule="nonzero"/><path fill="#ffffff" d="M 57.789062 74.273438 L 60.136719 74.273438 L 60.136719 76.617188 L 57.789062 76.617188 Z M 57.789062 74.273438 " fill-opacity="1" fill-rule="nonzero"/><path fill="#ffffff" d="M 62.484375 74.273438 L 64.828125 74.273438 L 64.828125 76.617188 L 62.484375 76.617188 Z M 62.484375 74.273438 " fill-opacity="1" fill-rule="nonzero"/><path fill="#ffffff" d="M 24.945312 74.273438 L 27.292969 74.273438 L 27.292969 76.617188 L 24.945312 76.617188 Z M 24.945312 74.273438 " fill-opacity="1" fill-rule="nonzero"/><path fill="#ffffff" d="M 29.636719 74.273438 L 31.984375 74.273438 L 31.984375 76.617188 L 29.636719 76.617188 Z M 29.636719 74.273438 " fill-opacity="1" fill-rule="nonzero"/><path fill="#ffffff" d="M 34.332031 74.273438 L 36.675781 74.273438 L 36.675781 76.617188 L 34.332031 76.617188 Z M 34.332031 74.273438 " fill-opacity="1" fill-rule="nonzero"/><path fill="#ffffff" d="M 39.023438 74.273438 L 41.367188 74.273438 L 41.367188 76.617188 L 39.023438 76.617188 Z M 39.023438 74.273438 " fill-opacity="1" fill-rule="nonzero"/><path fill="#ffffff" d="M 53.183594 34.707031 L 51.820312 36.070312 C 51.101562 35.703125 50.351562 35.390625 49.578125 35.144531 L 49.578125 33.214844 C 49.578125 32.566406 49.054688 32.042969 48.40625 32.042969 L 41.367188 32.042969 C 40.722656 32.042969 40.195312 32.566406 40.195312 33.214844 L 40.195312 35.144531 C 39.421875 35.390625 38.675781 35.703125 37.953125 36.070312 L 36.59375 34.707031 C 36.132812 34.25 35.394531 34.25 34.933594 34.707031 L 29.957031 39.683594 C 29.5 40.144531 29.5 40.886719 29.957031 41.34375 L 31.320312 42.707031 C 30.953125 43.425781 30.640625 44.175781 30.390625 44.945312 L 28.464844 44.945312 C 27.816406 44.945312 27.292969 45.472656 27.292969 46.121094 L 27.292969 53.15625 C 27.292969 53.804688 27.816406 54.332031 28.464844 54.332031 L 30.390625 54.332031 C 30.640625 55.101562 30.953125 55.851562 31.320312 56.570312 L 29.957031 57.933594 C 29.5 58.390625 29.5 59.132812 29.957031 59.589844 L 34.933594 64.570312 C 35.394531 65.027344 36.132812 65.027344 36.59375 64.570312 L 37.953125 63.207031 C 38.675781 63.574219 39.421875 63.886719 40.195312 64.132812 L 40.195312 66.0625 C 40.195312 66.707031 40.722656 67.234375 41.367188 67.234375 L 48.40625 67.234375 C 49.054688 67.234375 49.578125 66.707031 49.578125 66.0625 L 49.578125 64.132812 C 50.351562 63.886719 51.101562 63.574219 51.820312 63.207031 L 53.183594 64.570312 C 53.640625 65.027344 54.382812 65.027344 54.839844 64.570312 L 59.816406 59.589844 C 60.277344 59.132812 60.277344 58.390625 59.816406 57.933594 L 58.457031 56.570312 C 58.824219 55.851562 59.132812 55.101562 59.382812 54.332031 L 61.308594 54.332031 C 61.957031 54.332031 62.484375 53.804688 62.484375 53.15625 L 62.484375 46.121094 C 62.484375 45.472656 61.957031 44.945312 61.308594 44.945312 L 59.382812 44.945312 C 59.132812 44.175781 58.824219 43.425781 58.457031 42.707031 L 59.816406 41.34375 C 60.277344 40.886719 60.277344 40.144531 59.816406 39.683594 L 54.839844 34.707031 C 54.382812 34.25 53.640625 34.25 53.183594 34.707031 Z M 55.992188 43.09375 C 56.605469 44.128906 57.066406 45.242188 57.367188 46.414062 C 57.5 46.929688 57.96875 47.292969 58.5 47.292969 L 60.136719 47.292969 L 60.136719 51.984375 L 58.5 51.984375 C 57.96875 51.984375 57.5 52.347656 57.367188 52.863281 C 57.066406 54.035156 56.601562 55.148438 55.992188 56.179688 C 55.722656 56.644531 55.796875 57.230469 56.175781 57.605469 L 57.328125 58.761719 L 54.011719 62.082031 L 52.855469 60.925781 C 52.476562 60.546875 51.890625 60.472656 51.429688 60.746094 C 50.398438 61.355469 49.28125 61.816406 48.113281 62.117188 C 47.597656 62.25 47.234375 62.71875 47.234375 63.253906 L 47.234375 64.886719 L 42.542969 64.886719 L 42.542969 63.253906 C 42.542969 62.71875 42.179688 62.25 41.660156 62.117188 C 40.492188 61.816406 39.375 61.355469 38.34375 60.746094 C 37.882812 60.472656 37.296875 60.546875 36.917969 60.925781 L 35.761719 62.082031 L 32.445312 58.761719 L 33.601562 57.605469 C 33.980469 57.226562 34.054688 56.640625 33.78125 56.179688 C 33.171875 55.148438 32.710938 54.035156 32.410156 52.863281 C 32.273438 52.347656 31.808594 51.984375 31.273438 51.984375 L 29.636719 51.984375 L 29.636719 47.292969 L 31.273438 47.292969 C 31.808594 47.292969 32.273438 46.929688 32.410156 46.414062 C 32.710938 45.242188 33.171875 44.128906 33.78125 43.09375 C 34.054688 42.632812 33.976562 42.046875 33.601562 41.667969 L 32.445312 40.515625 L 35.761719 37.195312 L 36.917969 38.351562 C 37.296875 38.730469 37.882812 38.804688 38.34375 38.53125 C 39.375 37.921875 40.492188 37.460938 41.660156 37.160156 C 42.179688 37.027344 42.542969 36.558594 42.542969 36.023438 L 42.542969 34.390625 L 47.234375 34.390625 L 47.234375 36.023438 C 47.234375 36.558594 47.597656 37.027344 48.113281 37.160156 C 49.28125 37.460938 50.398438 37.921875 51.429688 38.53125 C 51.890625 38.804688 52.476562 38.730469 52.855469 38.351562 L 54.011719 37.195312 L 57.328125 40.515625 L 56.175781 41.667969 C 55.796875 42.046875 55.722656 42.632812 55.992188 43.09375 Z M 55.992188 43.09375 " fill-opacity="1" fill-rule="nonzero"/><path fill="#ffffff" d="M 44.886719 39.082031 C 39.066406 39.082031 34.332031 43.816406 34.332031 49.636719 C 34.332031 55.460938 39.066406 60.195312 44.886719 60.195312 C 50.707031 60.195312 55.445312 55.460938 55.445312 49.636719 C 55.445312 43.816406 50.707031 39.082031 44.886719 39.082031 Z M 44.886719 57.851562 C 40.359375 57.851562 36.675781 54.167969 36.675781 49.636719 C 36.675781 45.109375 40.359375 41.425781 44.886719 41.425781 C 49.414062 41.425781 53.097656 45.109375 53.097656 49.636719 C 53.097656 54.167969 49.414062 57.851562 44.886719 57.851562 Z M 44.886719 57.851562 " fill-opacity="1" fill-rule="nonzero"/></svg>