<svg xmlns="http://www.w3.org/2000/svg" xmlns:xlink="http://www.w3.org/1999/xlink" width="120" zoomAndPan="magnify" viewBox="0 0 90 89.999999" height="120" preserveAspectRatio="xMidYMid meet" version="1.0"><defs><clipPath id="id1"><path d="M 16 59 L 74 59 L 74 80.101562 L 16 80.101562 Z M 16 59 " clip-rule="nonzero"/></clipPath><clipPath id="id2"><path d="M 55 9.601562 L 59 9.601562 L 59 13 L 55 13 Z M 55 9.601562 " clip-rule="nonzero"/></clipPath><clipPath id="id3"><path d="M 77 57 L 80.101562 57 L 80.101562 60 L 77 60 Z M 77 57 " clip-rule="nonzero"/></clipPath><clipPath id="id4"><path d="M 11 9.601562 L 15 9.601562 L 15 12 L 11 12 Z M 11 9.601562 " clip-rule="nonzero"/></clipPath><clipPath id="id5"><path d="M 9.601562 11 L 12 11 L 12 15 L 9.601562 15 Z M 9.601562 11 " clip-rule="nonzero"/></clipPath><clipPath id="id6"><path d="M 20 9.601562 L 24 9.601562 L 24 12 L 20 12 Z M 20 9.601562 " clip-rule="nonzero"/></clipPath></defs><g clip-path="url(#id1)"><path fill="#ffffff" d="M 34.617188 80.101562 L 35.753906 80.101562 C 35.753906 79.503906 35.8125 78.910156 35.929688 78.324219 C 36.042969 77.738281 36.21875 77.171875 36.445312 76.617188 C 36.675781 76.066406 36.953125 75.542969 37.285156 75.046875 C 37.617188 74.550781 37.996094 74.089844 38.417969 73.667969 C 38.839844 73.246094 39.300781 72.867188 39.796875 72.535156 C 40.292969 72.203125 40.816406 71.925781 41.367188 71.695312 C 41.921875 71.46875 42.488281 71.292969 43.074219 71.179688 C 43.660156 71.0625 44.253906 71.003906 44.851562 71.003906 C 45.449219 71.003906 46.039062 71.0625 46.625 71.179688 C 47.210938 71.292969 47.78125 71.46875 48.332031 71.695312 C 48.882812 71.925781 49.40625 72.203125 49.902344 72.535156 C 50.402344 72.867188 50.859375 73.246094 51.28125 73.667969 C 51.703125 74.089844 52.082031 74.550781 52.414062 75.046875 C 52.746094 75.542969 53.027344 76.066406 53.253906 76.617188 C 53.484375 77.171875 53.65625 77.738281 53.773438 78.324219 C 53.886719 78.910156 53.945312 79.503906 53.945312 80.101562 L 57.359375 80.101562 C 57.359375 79.652344 57.402344 79.207031 57.488281 78.769531 C 57.578125 78.328125 57.707031 77.902344 57.878906 77.488281 C 58.046875 77.074219 58.257812 76.683594 58.507812 76.308594 C 58.757812 75.9375 59.039062 75.59375 59.355469 75.277344 C 59.671875 74.957031 60.019531 74.675781 60.390625 74.425781 C 60.761719 74.179688 61.15625 73.96875 61.570312 73.796875 C 61.984375 73.625 62.410156 73.496094 62.851562 73.410156 C 63.289062 73.320312 63.734375 73.277344 64.179688 73.277344 C 64.628906 73.277344 65.074219 73.320312 65.511719 73.410156 C 65.949219 73.496094 66.378906 73.625 66.792969 73.796875 C 67.207031 73.96875 67.597656 74.179688 67.972656 74.425781 C 68.34375 74.675781 68.6875 74.957031 69.003906 75.277344 C 69.320312 75.59375 69.605469 75.9375 69.851562 76.308594 C 70.101562 76.683594 70.3125 77.074219 70.484375 77.488281 C 70.65625 77.902344 70.785156 78.328125 70.871094 78.769531 C 70.960938 79.207031 71.003906 79.652344 71.003906 80.101562 L 73.277344 80.101562 C 73.277344 79.195312 73.140625 78.3125 72.875 77.445312 C 72.609375 76.582031 72.222656 75.773438 71.71875 75.027344 C 71.210938 74.277344 70.605469 73.617188 69.902344 73.046875 C 69.199219 72.480469 68.429688 72.023438 67.59375 71.683594 C 67.785156 71.46875 67.953125 71.234375 68.101562 70.984375 C 68.25 70.730469 68.371094 70.46875 68.46875 70.195312 C 68.566406 69.921875 68.636719 69.640625 68.679688 69.355469 C 68.722656 69.066406 68.738281 68.777344 68.726562 68.488281 C 68.714844 68.195312 68.671875 67.910156 68.605469 67.628906 C 68.539062 67.34375 68.445312 67.070312 68.328125 66.804688 C 68.207031 66.539062 68.0625 66.289062 67.894531 66.050781 C 67.726562 65.816406 67.539062 65.59375 67.328125 65.394531 C 67.121094 65.191406 66.890625 65.015625 66.648438 64.855469 C 66.402344 64.699219 66.148438 64.566406 65.878906 64.457031 C 65.609375 64.347656 65.328125 64.265625 65.042969 64.210938 C 64.757812 64.15625 64.472656 64.128906 64.179688 64.128906 C 63.890625 64.128906 63.601562 64.15625 63.316406 64.210938 C 63.03125 64.265625 62.753906 64.347656 62.484375 64.457031 C 62.214844 64.566406 61.957031 64.699219 61.714844 64.855469 C 61.46875 65.015625 61.242188 65.191406 61.03125 65.394531 C 60.824219 65.59375 60.632812 65.816406 60.464844 66.050781 C 60.296875 66.289062 60.15625 66.539062 60.035156 66.804688 C 59.914062 67.070312 59.820312 67.34375 59.753906 67.628906 C 59.6875 67.910156 59.648438 68.195312 59.636719 68.488281 C 59.625 68.777344 59.640625 69.066406 59.683594 69.355469 C 59.726562 69.640625 59.796875 69.921875 59.894531 70.195312 C 59.992188 70.46875 60.113281 70.730469 60.261719 70.984375 C 60.40625 71.234375 60.578125 71.46875 60.769531 71.683594 C 59.617188 72.15625 58.605469 72.832031 57.734375 73.71875 C 56.863281 74.601562 56.199219 75.621094 55.742188 76.78125 C 55.484375 75.941406 55.136719 75.140625 54.691406 74.382812 C 54.25 73.625 53.726562 72.925781 53.121094 72.289062 C 52.515625 71.652344 51.847656 71.089844 51.113281 70.609375 C 50.378906 70.128906 49.597656 69.734375 48.773438 69.433594 C 49.046875 69.175781 49.292969 68.890625 49.511719 68.582031 C 49.730469 68.273438 49.917969 67.945312 50.070312 67.601562 C 50.222656 67.253906 50.339844 66.898438 50.421875 66.527344 C 50.503906 66.160156 50.550781 65.785156 50.558594 65.410156 C 50.566406 65.03125 50.535156 64.65625 50.46875 64.285156 C 50.398438 63.910156 50.296875 63.550781 50.15625 63.199219 C 50.015625 62.847656 49.84375 62.511719 49.636719 62.195312 C 49.433594 61.878906 49.195312 61.585938 48.933594 61.316406 C 48.667969 61.046875 48.378906 60.804688 48.066406 60.59375 C 47.753906 60.382812 47.421875 60.203125 47.074219 60.054688 C 46.726562 59.910156 46.367188 59.796875 45.996094 59.722656 C 45.625 59.648438 45.25 59.613281 44.871094 59.613281 C 44.496094 59.613281 44.121094 59.648438 43.75 59.722656 C 43.378906 59.796875 43.019531 59.910156 42.671875 60.054688 C 42.324219 60.203125 41.992188 60.382812 41.679688 60.59375 C 41.367188 60.804688 41.078125 61.046875 40.8125 61.316406 C 40.546875 61.585938 40.3125 61.878906 40.105469 62.195312 C 39.902344 62.511719 39.726562 62.847656 39.589844 63.199219 C 39.449219 63.550781 39.34375 63.910156 39.277344 64.285156 C 39.210938 64.65625 39.179688 65.03125 39.1875 65.410156 C 39.195312 65.785156 39.242188 66.160156 39.324219 66.527344 C 39.402344 66.898438 39.523438 67.253906 39.675781 67.601562 C 39.828125 67.945312 40.015625 68.273438 40.230469 68.582031 C 40.449219 68.890625 40.699219 69.175781 40.972656 69.433594 C 40.148438 69.734375 39.367188 70.128906 38.632812 70.609375 C 37.898438 71.089844 37.230469 71.652344 36.625 72.289062 C 36.019531 72.925781 35.496094 73.625 35.054688 74.382812 C 34.609375 75.140625 34.261719 75.941406 34.003906 76.78125 C 33.542969 75.617188 32.871094 74.59375 31.992188 73.710938 C 31.109375 72.824219 30.089844 72.152344 28.929688 71.683594 C 29.121094 71.46875 29.292969 71.234375 29.441406 70.984375 C 29.585938 70.730469 29.710938 70.46875 29.804688 70.195312 C 29.902344 69.921875 29.972656 69.640625 30.015625 69.355469 C 30.058594 69.066406 30.074219 68.777344 30.0625 68.488281 C 30.050781 68.195312 30.011719 67.910156 29.945312 67.628906 C 29.878906 67.34375 29.785156 67.070312 29.664062 66.804688 C 29.546875 66.539062 29.402344 66.289062 29.234375 66.050781 C 29.066406 65.816406 28.878906 65.59375 28.667969 65.394531 C 28.457031 65.191406 28.230469 65.015625 27.988281 64.855469 C 27.742188 64.699219 27.484375 64.566406 27.214844 64.457031 C 26.945312 64.347656 26.667969 64.265625 26.382812 64.210938 C 26.097656 64.15625 25.808594 64.128906 25.519531 64.128906 C 25.230469 64.128906 24.941406 64.15625 24.65625 64.210938 C 24.371094 64.265625 24.09375 64.347656 23.824219 64.457031 C 23.554688 64.566406 23.296875 64.699219 23.050781 64.855469 C 22.808594 65.015625 22.582031 65.191406 22.371094 65.394531 C 22.160156 65.59375 21.972656 65.816406 21.804688 66.050781 C 21.636719 66.289062 21.492188 66.539062 21.375 66.804688 C 21.253906 67.070312 21.160156 67.34375 21.09375 67.628906 C 21.027344 67.910156 20.988281 68.195312 20.976562 68.488281 C 20.960938 68.777344 20.976562 69.066406 21.023438 69.355469 C 21.066406 69.640625 21.136719 69.921875 21.230469 70.195312 C 21.328125 70.46875 21.453125 70.730469 21.597656 70.984375 C 21.746094 71.234375 21.914062 71.46875 22.109375 71.683594 C 21.269531 72.023438 20.5 72.480469 19.796875 73.046875 C 19.09375 73.617188 18.488281 74.277344 17.980469 75.027344 C 17.476562 75.773438 17.089844 76.582031 16.824219 77.445312 C 16.558594 78.3125 16.425781 79.195312 16.421875 80.101562 L 18.695312 80.101562 C 18.695312 79.652344 18.742188 79.207031 18.828125 78.769531 C 18.914062 78.328125 19.042969 77.902344 19.214844 77.488281 C 19.386719 77.074219 19.597656 76.683594 19.847656 76.308594 C 20.09375 75.9375 20.378906 75.59375 20.695312 75.277344 C 21.011719 74.957031 21.355469 74.675781 21.730469 74.425781 C 22.101562 74.179688 22.496094 73.96875 22.910156 73.796875 C 23.324219 73.625 23.75 73.496094 24.1875 73.410156 C 24.628906 73.320312 25.070312 73.277344 25.519531 73.277344 C 25.96875 73.277344 26.410156 73.320312 26.851562 73.410156 C 27.289062 73.496094 27.714844 73.625 28.128906 73.796875 C 28.542969 73.96875 28.9375 74.179688 29.308594 74.425781 C 29.683594 74.675781 30.027344 74.957031 30.34375 75.277344 C 30.660156 75.59375 30.941406 75.9375 31.191406 76.308594 C 31.441406 76.683594 31.652344 77.074219 31.824219 77.488281 C 31.992188 77.902344 32.125 78.328125 32.210938 78.769531 C 32.296875 79.207031 32.34375 79.652344 32.34375 80.101562 Z M 64.179688 66.453125 C 64.480469 66.453125 64.773438 66.511719 65.050781 66.628906 C 65.328125 66.742188 65.574219 66.90625 65.789062 67.121094 C 66.003906 67.335938 66.167969 67.582031 66.28125 67.859375 C 66.398438 68.136719 66.453125 68.425781 66.453125 68.730469 C 66.453125 69.03125 66.398438 69.320312 66.28125 69.597656 C 66.167969 69.878906 66.003906 70.125 65.789062 70.335938 C 65.574219 70.550781 65.328125 70.714844 65.050781 70.832031 C 64.773438 70.945312 64.480469 71.003906 64.179688 71.003906 C 63.878906 71.003906 63.589844 70.945312 63.308594 70.832031 C 63.03125 70.714844 62.785156 70.550781 62.574219 70.335938 C 62.359375 70.125 62.195312 69.878906 62.078125 69.597656 C 61.964844 69.320312 61.90625 69.03125 61.90625 68.730469 C 61.90625 68.425781 61.964844 68.136719 62.078125 67.859375 C 62.195312 67.582031 62.359375 67.335938 62.574219 67.121094 C 62.785156 66.90625 63.03125 66.742188 63.308594 66.628906 C 63.589844 66.511719 63.878906 66.453125 64.179688 66.453125 Z M 44.851562 61.90625 C 45.300781 61.90625 45.738281 61.992188 46.15625 62.167969 C 46.574219 62.339844 46.941406 62.585938 47.261719 62.90625 C 47.582031 63.226562 47.828125 63.59375 48 64.011719 C 48.175781 64.429688 48.261719 64.867188 48.261719 65.316406 C 48.261719 65.769531 48.175781 66.207031 48 66.625 C 47.828125 67.042969 47.582031 67.410156 47.261719 67.730469 C 46.941406 68.050781 46.574219 68.296875 46.15625 68.46875 C 45.738281 68.640625 45.300781 68.730469 44.851562 68.730469 C 44.398438 68.730469 43.960938 68.640625 43.542969 68.46875 C 43.125 68.296875 42.757812 68.050781 42.4375 67.730469 C 42.117188 67.410156 41.871094 67.042969 41.699219 66.625 C 41.523438 66.207031 41.4375 65.769531 41.4375 65.316406 C 41.4375 64.867188 41.523438 64.429688 41.699219 64.011719 C 41.871094 63.59375 42.117188 63.226562 42.4375 62.90625 C 42.757812 62.585938 43.125 62.339844 43.542969 62.167969 C 43.960938 61.992188 44.398438 61.90625 44.851562 61.90625 Z M 25.519531 71.003906 C 25.21875 71.003906 24.925781 70.945312 24.648438 70.832031 C 24.371094 70.714844 24.125 70.550781 23.910156 70.335938 C 23.699219 70.125 23.535156 69.878906 23.417969 69.597656 C 23.304688 69.320312 23.246094 69.03125 23.246094 68.730469 C 23.246094 68.425781 23.304688 68.136719 23.417969 67.859375 C 23.535156 67.582031 23.699219 67.335938 23.910156 67.121094 C 24.125 66.90625 24.371094 66.742188 24.648438 66.628906 C 24.925781 66.511719 25.21875 66.453125 25.519531 66.453125 C 25.820312 66.453125 26.109375 66.511719 26.390625 66.628906 C 26.667969 66.742188 26.914062 66.90625 27.128906 67.121094 C 27.339844 67.335938 27.503906 67.582031 27.621094 67.859375 C 27.734375 68.136719 27.792969 68.425781 27.792969 68.730469 C 27.792969 69.03125 27.734375 69.320312 27.621094 69.597656 C 27.503906 69.878906 27.339844 70.125 27.128906 70.335938 C 26.914062 70.550781 26.667969 70.714844 26.390625 70.832031 C 26.109375 70.945312 25.820312 71.003906 25.519531 71.003906 Z M 25.519531 71.003906 " fill-opacity="1" fill-rule="nonzero"/></g><path fill="#ffffff" d="M 47.839844 15.558594 C 45.019531 16.695312 42.601562 18.40625 40.585938 20.6875 C 39.574219 21.855469 38.722656 23.128906 38.027344 24.507812 C 37.382812 23.328125 36.519531 22.34375 35.4375 21.546875 C 34.355469 20.753906 33.15625 20.222656 31.839844 19.957031 C 31.253906 19.855469 30.664062 19.8125 30.066406 19.832031 C 29.5625 19.832031 29.058594 19.875 28.5625 19.960938 C 28.0625 20.042969 27.574219 20.167969 27.097656 20.332031 C 26.617188 20.5 26.15625 20.703125 25.714844 20.945312 C 25.269531 21.1875 24.847656 21.464844 24.453125 21.777344 C 24.054688 22.085938 23.683594 22.429688 23.34375 22.804688 C 23.003906 23.179688 22.695312 23.578125 22.421875 24.003906 C 22.148438 24.425781 21.910156 24.871094 21.710938 25.335938 C 21.511719 25.800781 21.351562 26.277344 21.234375 26.769531 C 20.769531 26.691406 20.304688 26.65625 19.832031 26.65625 C 19.238281 26.65625 18.644531 26.714844 18.058594 26.832031 C 17.472656 26.949219 16.90625 27.121094 16.351562 27.347656 C 15.800781 27.578125 15.277344 27.859375 14.78125 28.191406 C 14.285156 28.519531 13.824219 28.898438 13.402344 29.320312 C 12.980469 29.742188 12.601562 30.203125 12.269531 30.699219 C 11.9375 31.195312 11.65625 31.71875 11.429688 32.273438 C 11.199219 32.824219 11.027344 33.394531 10.910156 33.980469 C 10.796875 34.5625 10.738281 35.15625 10.738281 35.753906 C 10.738281 36.351562 10.796875 36.941406 10.910156 37.527344 C 11.027344 38.113281 11.199219 38.683594 11.429688 39.234375 C 11.65625 39.785156 11.9375 40.308594 12.269531 40.808594 C 12.601562 41.304688 12.980469 41.761719 13.402344 42.1875 C 13.824219 42.609375 14.285156 42.984375 14.78125 43.316406 C 15.277344 43.648438 15.800781 43.929688 16.351562 44.15625 C 16.90625 44.386719 17.472656 44.558594 18.058594 44.675781 C 18.644531 44.792969 19.238281 44.851562 19.832031 44.851562 L 39.472656 44.851562 C 40.789062 46.664062 42.371094 48.203125 44.222656 49.464844 C 46.074219 50.730469 48.082031 51.644531 50.25 52.207031 C 51.835938 52.609375 53.449219 52.8125 55.082031 52.808594 C 56.199219 52.808594 57.308594 52.714844 58.40625 52.523438 C 59.507812 52.328125 60.582031 52.042969 61.632812 51.667969 C 62.683594 51.289062 63.695312 50.824219 64.664062 50.269531 C 65.632812 49.714844 66.546875 49.082031 67.40625 48.371094 C 68.269531 47.660156 69.0625 46.878906 69.785156 46.03125 C 70.511719 45.179688 71.15625 44.277344 71.726562 43.316406 C 72.292969 42.355469 72.773438 41.351562 73.167969 40.308594 C 73.5625 39.261719 73.863281 38.191406 74.074219 37.09375 C 74.300781 35.898438 74.414062 34.695312 74.414062 33.480469 C 74.421875 30.972656 73.953125 28.558594 73.003906 26.234375 C 72.503906 24.957031 71.867188 23.753906 71.09375 22.621094 C 70.476562 21.710938 69.789062 20.863281 69.027344 20.074219 C 68.265625 19.285156 67.445312 18.566406 66.5625 17.914062 C 65.675781 17.265625 64.746094 16.695312 63.765625 16.203125 C 62.785156 15.710938 61.769531 15.308594 60.71875 14.988281 C 59.667969 14.671875 58.601562 14.441406 57.511719 14.304688 C 56.421875 14.171875 55.332031 14.125 54.234375 14.175781 C 53.140625 14.226562 52.054688 14.367188 50.984375 14.601562 C 49.914062 14.835938 48.867188 15.15625 47.851562 15.570312 Z M 42.292969 22.1875 C 43.671875 20.636719 45.285156 19.375 47.125 18.414062 L 47.125 26.65625 C 47.125 26.808594 47.152344 26.953125 47.210938 27.089844 C 47.269531 27.230469 47.351562 27.355469 47.457031 27.460938 C 47.5625 27.566406 47.6875 27.648438 47.824219 27.707031 C 47.964844 27.765625 48.109375 27.792969 48.261719 27.792969 L 50.535156 27.792969 L 50.535156 32.34375 C 50.535156 32.492188 50.5625 32.636719 50.621094 32.777344 C 50.679688 32.917969 50.761719 33.039062 50.867188 33.144531 C 50.976562 33.253906 51.097656 33.335938 51.238281 33.390625 C 51.375 33.449219 51.523438 33.480469 51.671875 33.480469 L 56.222656 33.480469 L 56.222656 38.027344 L 51.558594 38.027344 C 51.425781 37.375 51.1875 36.765625 50.839844 36.199219 C 50.492188 35.628906 50.058594 35.140625 49.539062 34.722656 C 49.019531 34.308594 48.445312 33.992188 47.816406 33.78125 C 47.1875 33.566406 46.539062 33.464844 45.875 33.480469 C 45.945312 33.101562 45.984375 32.722656 45.988281 32.34375 C 45.984375 31.390625 45.796875 30.476562 45.417969 29.601562 C 45.179688 29.058594 44.875 28.554688 44.503906 28.089844 C 44.132812 27.625 43.707031 27.21875 43.230469 26.867188 C 42.753906 26.511719 42.238281 26.226562 41.683594 26.007812 C 41.132812 25.789062 40.5625 25.644531 39.972656 25.578125 C 40.609375 24.355469 41.382812 23.222656 42.292969 22.1875 Z M 19.832031 42.574219 C 18.910156 42.578125 18.027344 42.402344 17.175781 42.042969 C 16.328125 41.683594 15.582031 41.171875 14.945312 40.507812 C 15.316406 39.886719 15.777344 39.347656 16.328125 38.878906 C 16.878906 38.414062 17.488281 38.050781 18.160156 37.789062 C 18.832031 37.527344 19.53125 37.378906 20.25 37.347656 C 20.972656 37.316406 21.675781 37.402344 22.371094 37.605469 C 22.707031 37.703125 23.023438 37.652344 23.3125 37.457031 C 23.605469 37.257812 23.769531 36.980469 23.800781 36.628906 C 23.851562 36.25 23.933594 35.878906 24.050781 35.515625 C 24.167969 35.152344 24.316406 34.800781 24.5 34.464844 C 24.679688 34.128906 24.890625 33.8125 25.132812 33.515625 C 25.371094 33.21875 25.636719 32.945312 25.925781 32.699219 C 26.214844 32.449219 26.527344 32.230469 26.855469 32.039062 C 27.1875 31.847656 27.53125 31.6875 27.890625 31.558594 C 28.253906 31.433594 28.621094 31.339844 28.996094 31.28125 C 29.375 31.21875 29.753906 31.195312 30.136719 31.203125 C 30.554688 31.203125 30.964844 31.242188 31.375 31.320312 C 32.417969 31.507812 33.355469 31.933594 34.183594 32.597656 C 35.011719 33.261719 35.636719 34.082031 36.050781 35.058594 C 36.132812 35.25 36.203125 35.449219 36.253906 35.652344 L 38.460938 35.082031 C 38.375 34.777344 38.273438 34.476562 38.152344 34.183594 C 37.875 33.53125 37.519531 32.917969 37.09375 32.351562 C 36.664062 31.785156 36.171875 31.28125 35.617188 30.835938 C 35.0625 30.390625 34.460938 30.023438 33.8125 29.726562 C 33.167969 29.429688 32.496094 29.21875 31.796875 29.089844 C 31.246094 28.984375 30.695312 28.929688 30.136719 28.929688 C 29.191406 28.917969 28.273438 29.054688 27.375 29.34375 C 26.476562 29.632812 25.648438 30.0625 24.894531 30.625 C 24.136719 31.1875 23.488281 31.859375 22.953125 32.636719 C 22.417969 33.410156 22.023438 34.253906 21.765625 35.160156 C 21 35.050781 20.234375 35.039062 19.464844 35.132812 C 18.699219 35.222656 17.953125 35.414062 17.234375 35.703125 C 16.519531 35.992188 15.851562 36.367188 15.230469 36.835938 C 14.613281 37.300781 14.066406 37.835938 13.589844 38.449219 C 13.210938 37.589844 13.015625 36.691406 13.011719 35.753906 C 13.011719 35.304688 13.054688 34.863281 13.140625 34.421875 C 13.230469 33.984375 13.359375 33.554688 13.53125 33.140625 C 13.703125 32.726562 13.914062 32.335938 14.160156 31.960938 C 14.410156 31.589844 14.691406 31.246094 15.007812 30.929688 C 15.328125 30.613281 15.671875 30.328125 16.042969 30.082031 C 16.414062 29.832031 16.808594 29.621094 17.222656 29.449219 C 17.636719 29.277344 18.0625 29.148438 18.503906 29.0625 C 18.941406 28.972656 19.386719 28.929688 19.832031 28.929688 C 20.515625 28.933594 21.183594 29.035156 21.835938 29.226562 C 22.175781 29.328125 22.496094 29.277344 22.789062 29.078125 C 23.070312 28.871094 23.21875 28.59375 23.246094 28.25 C 23.289062 27.828125 23.367188 27.417969 23.484375 27.015625 C 23.605469 26.609375 23.757812 26.222656 23.949219 25.847656 C 24.136719 25.472656 24.359375 25.117188 24.617188 24.78125 C 24.871094 24.449219 25.15625 24.140625 25.46875 23.859375 C 25.78125 23.578125 26.117188 23.328125 26.476562 23.109375 C 26.835938 22.890625 27.210938 22.703125 27.605469 22.554688 C 28 22.40625 28.402344 22.292969 28.816406 22.21875 C 29.230469 22.140625 29.648438 22.105469 30.066406 22.109375 C 30.5 22.109375 30.929688 22.148438 31.351562 22.234375 C 32.417969 22.441406 33.378906 22.875 34.234375 23.539062 C 35.09375 24.207031 35.753906 25.027344 36.21875 26.007812 C 36.394531 26.375 36.535156 26.753906 36.640625 27.144531 C 36.722656 27.449219 36.898438 27.683594 37.175781 27.839844 C 37.453125 27.996094 37.742188 28.03125 38.050781 27.941406 C 38.414062 27.84375 38.785156 27.792969 39.164062 27.792969 C 39.605469 27.792969 40.039062 27.855469 40.464844 27.980469 C 40.886719 28.105469 41.285156 28.289062 41.65625 28.53125 C 42.027344 28.773438 42.355469 29.0625 42.640625 29.398438 C 42.925781 29.734375 43.160156 30.105469 43.335938 30.511719 C 43.585938 31.097656 43.710938 31.707031 43.714844 32.34375 C 43.710938 33.097656 43.527344 33.800781 43.15625 34.457031 C 43.035156 34.671875 42.992188 34.898438 43.019531 35.140625 C 43.046875 35.386719 43.144531 35.597656 43.308594 35.777344 C 43.476562 35.957031 43.675781 36.074219 43.917969 36.121094 C 44.15625 36.171875 44.386719 36.148438 44.609375 36.050781 C 44.84375 35.945312 45.085938 35.867188 45.335938 35.820312 C 45.582031 35.769531 45.835938 35.746094 46.089844 35.753906 C 46.34375 35.761719 46.59375 35.796875 46.839844 35.859375 C 47.085938 35.921875 47.324219 36.011719 47.550781 36.125 C 47.777344 36.242188 47.988281 36.378906 48.183594 36.542969 C 48.378906 36.707031 48.554688 36.890625 48.710938 37.089844 C 48.863281 37.292969 48.992188 37.507812 49.101562 37.742188 C 49.207031 37.972656 49.285156 38.210938 49.339844 38.460938 C 49.390625 38.710938 49.414062 38.960938 49.410156 39.214844 C 49.40625 39.46875 49.375 39.722656 49.316406 39.96875 C 49.253906 40.214844 49.167969 40.453125 49.054688 40.679688 C 48.941406 40.910156 48.804688 41.121094 48.644531 41.320312 C 48.484375 41.515625 48.304688 41.691406 48.105469 41.851562 C 47.902344 42.007812 47.6875 42.140625 47.457031 42.25 C 47.230469 42.355469 46.988281 42.4375 46.742188 42.496094 C 46.492188 42.550781 46.242188 42.578125 45.988281 42.574219 Z M 55.082031 50.535156 C 53.640625 50.539062 52.21875 50.359375 50.820312 50 L 50.707031 50 L 51.671875 50 L 51.671875 45.988281 L 66.660156 45.988281 C 65.089844 47.453125 63.304688 48.582031 61.304688 49.367188 C 59.304688 50.152344 57.230469 50.542969 55.082031 50.535156 Z M 65.316406 19.832031 C 66.835938 20.964844 68.128906 22.308594 69.195312 23.871094 C 69.875 24.878906 70.445312 25.949219 70.902344 27.078125 C 71.734375 29.128906 72.148438 31.265625 72.140625 33.480469 C 72.136719 34.554688 72.039062 35.617188 71.84375 36.675781 C 71.734375 37.238281 71.59375 37.796875 71.425781 38.347656 L 71.34375 38.628906 C 71.171875 39.152344 70.980469 39.664062 70.765625 40.175781 L 70.765625 40.300781 L 65.316406 40.300781 L 65.316406 38.027344 L 67.59375 38.027344 C 67.742188 38.027344 67.886719 38 68.027344 37.941406 C 68.167969 37.882812 68.289062 37.800781 68.394531 37.695312 C 68.503906 37.585938 68.585938 37.464844 68.640625 37.324219 C 68.699219 37.1875 68.730469 37.042969 68.730469 36.890625 L 68.730469 26.65625 C 68.730469 26.503906 68.699219 26.359375 68.640625 26.222656 C 68.585938 26.082031 68.503906 25.960938 68.394531 25.851562 C 68.289062 25.746094 68.167969 25.664062 68.027344 25.605469 C 67.886719 25.546875 67.742188 25.519531 67.59375 25.519531 L 65.316406 25.519531 Z M 63.042969 18.425781 L 63.042969 26.65625 C 63.042969 26.808594 63.074219 26.953125 63.128906 27.089844 C 63.1875 27.230469 63.269531 27.355469 63.375 27.460938 C 63.484375 27.566406 63.605469 27.648438 63.746094 27.707031 C 63.886719 27.765625 64.03125 27.792969 64.179688 27.792969 L 66.453125 27.792969 L 66.453125 35.753906 L 64.179688 35.753906 C 64.03125 35.753906 63.886719 35.78125 63.746094 35.839844 C 63.605469 35.898438 63.484375 35.980469 63.375 36.085938 C 63.269531 36.191406 63.1875 36.316406 63.128906 36.457031 C 63.074219 36.59375 63.042969 36.738281 63.042969 36.890625 L 63.042969 41.4375 C 63.042969 41.589844 63.074219 41.734375 63.128906 41.875 C 63.1875 42.011719 63.269531 42.136719 63.375 42.242188 C 63.484375 42.347656 63.605469 42.429688 63.746094 42.488281 C 63.886719 42.546875 64.03125 42.574219 64.179688 42.574219 L 69.503906 42.574219 C 69.136719 43.164062 68.734375 43.730469 68.296875 44.269531 L 68.296875 43.714844 L 50.535156 43.714844 C 50.382812 43.714844 50.238281 43.742188 50.101562 43.800781 C 49.960938 43.855469 49.839844 43.9375 49.730469 44.046875 C 49.625 44.152344 49.542969 44.277344 49.484375 44.414062 C 49.425781 44.554688 49.398438 44.699219 49.398438 44.851562 L 49.398438 49.570312 C 46.660156 48.59375 44.328125 47.019531 42.394531 44.851562 L 45.988281 44.851562 C 46.640625 44.851562 47.277344 44.742188 47.894531 44.519531 C 48.511719 44.300781 49.074219 43.984375 49.582031 43.570312 C 50.089844 43.15625 50.515625 42.667969 50.855469 42.105469 C 51.191406 41.546875 51.429688 40.945312 51.558594 40.300781 L 57.359375 40.300781 C 57.507812 40.300781 57.652344 40.273438 57.792969 40.214844 C 57.933594 40.15625 58.054688 40.074219 58.164062 39.96875 C 58.269531 39.863281 58.351562 39.738281 58.410156 39.601562 C 58.464844 39.460938 58.496094 39.316406 58.496094 39.164062 L 58.496094 32.34375 C 58.496094 32.191406 58.464844 32.046875 58.410156 31.90625 C 58.351562 31.765625 58.269531 31.644531 58.164062 31.539062 C 58.054688 31.429688 57.933594 31.347656 57.792969 31.292969 C 57.652344 31.234375 57.507812 31.203125 57.359375 31.203125 L 52.808594 31.203125 L 52.808594 26.65625 C 52.808594 26.503906 52.78125 26.359375 52.722656 26.222656 C 52.664062 26.082031 52.582031 25.960938 52.476562 25.851562 C 52.371094 25.746094 52.246094 25.664062 52.109375 25.605469 C 51.96875 25.546875 51.824219 25.519531 51.671875 25.519531 L 49.398438 25.519531 L 49.398438 17.421875 C 50.507812 17.039062 51.648438 16.769531 52.816406 16.613281 C 53.980469 16.460938 55.152344 16.429688 56.324219 16.515625 C 57.496094 16.601562 58.648438 16.804688 59.78125 17.125 C 60.914062 17.445312 62 17.878906 63.042969 18.425781 Z M 63.042969 18.425781 " fill-opacity="1" fill-rule="nonzero"/><path fill="#ffffff" d="M 75.710938 45.519531 L 73.742188 44.382812 C 73.203125 45.320312 72.59375 46.207031 71.914062 47.042969 L 73.675781 48.476562 C 74.425781 47.542969 75.105469 46.554688 75.710938 45.519531 Z M 75.710938 45.519531 " fill-opacity="1" fill-rule="nonzero"/><path fill="#ffffff" d="M 58.164062 54.867188 C 57.144531 55.015625 56.117188 55.085938 55.082031 55.082031 L 55.082031 57.359375 C 56.226562 57.359375 57.363281 57.28125 58.496094 57.121094 Z M 58.164062 54.867188 " fill-opacity="1" fill-rule="nonzero"/><path fill="#ffffff" d="M 72.003906 20.039062 C 72.675781 20.890625 73.28125 21.785156 73.824219 22.722656 L 75.800781 21.585938 C 75.207031 20.550781 74.535156 19.5625 73.789062 18.628906 Z M 72.003906 20.039062 " fill-opacity="1" fill-rule="nonzero"/><path fill="#ffffff" d="M 64.339844 53.003906 C 63.363281 53.457031 62.359375 53.835938 61.328125 54.140625 L 61.976562 56.3125 C 63.121094 55.988281 64.234375 55.578125 65.316406 55.082031 Z M 64.339844 53.003906 " fill-opacity="1" fill-rule="nonzero"/><path fill="#ffffff" d="M 75.222656 25.632812 C 75.609375 26.640625 75.925781 27.671875 76.164062 28.726562 L 78.441406 28.238281 C 78.179688 27.074219 77.828125 25.9375 77.394531 24.824219 Z M 75.222656 25.632812 " fill-opacity="1" fill-rule="nonzero"/><path fill="#ffffff" d="M 78.347656 38.878906 L 76.074219 38.367188 C 75.851562 39.414062 75.546875 40.4375 75.164062 41.4375 L 77.28125 42.28125 C 77.722656 41.171875 78.078125 40.039062 78.347656 38.878906 Z M 78.347656 38.878906 " fill-opacity="1" fill-rule="nonzero"/><path fill="#ffffff" d="M 71.230469 51.070312 L 69.695312 49.398438 C 68.898438 50.128906 68.046875 50.796875 67.148438 51.398438 L 68.421875 53.289062 C 69.417969 52.621094 70.351562 51.882812 71.230469 51.070312 Z M 71.230469 51.070312 " fill-opacity="1" fill-rule="nonzero"/><path fill="#ffffff" d="M 71.355469 16 C 70.480469 15.175781 69.550781 14.417969 68.570312 13.726562 L 67.285156 15.636719 C 68.195312 16.25 69.054688 16.925781 69.867188 17.660156 Z M 71.355469 16 " fill-opacity="1" fill-rule="nonzero"/><g clip-path="url(#id2)"><path fill="#ffffff" d="M 55.082031 9.601562 L 55.082031 11.875 C 56.167969 11.875 57.242188 11.953125 58.3125 12.113281 L 58.65625 9.839844 C 57.46875 9.675781 56.28125 9.59375 55.082031 9.601562 Z M 55.082031 9.601562 " fill-opacity="1" fill-rule="nonzero"/></g><path fill="#ffffff" d="M 62.132812 10.65625 L 61.464844 12.828125 C 62.496094 13.132812 63.5 13.511719 64.476562 13.964844 L 65.464844 11.917969 C 64.386719 11.417969 63.273438 10.996094 62.132812 10.65625 Z M 62.132812 10.65625 " fill-opacity="1" fill-rule="nonzero"/><path fill="#ffffff" d="M 78.964844 33.480469 C 78.964844 32.910156 78.964844 32.34375 78.964844 31.773438 L 76.6875 31.933594 C 76.6875 32.445312 76.6875 32.957031 76.6875 33.480469 C 76.6875 34.003906 76.6875 34.617188 76.621094 35.171875 L 78.894531 35.34375 C 78.964844 34.730469 78.964844 34.105469 78.964844 33.480469 Z M 78.964844 33.480469 " fill-opacity="1" fill-rule="nonzero"/><path fill="#ffffff" d="M 19.832031 53.945312 L 36.890625 53.945312 L 36.890625 51.671875 L 19.195312 51.671875 C 19.011719 51.359375 18.789062 51.070312 18.535156 50.808594 C 18.277344 50.546875 17.996094 50.320312 17.683594 50.128906 C 17.375 49.9375 17.042969 49.785156 16.695312 49.671875 C 16.347656 49.554688 15.992188 49.484375 15.628906 49.457031 C 15.265625 49.429688 14.902344 49.445312 14.542969 49.507812 C 14.179688 49.566406 13.832031 49.667969 13.496094 49.8125 C 13.160156 49.957031 12.847656 50.136719 12.554688 50.355469 C 12.261719 50.578125 12 50.828125 11.769531 51.109375 C 11.535156 51.394531 11.339844 51.699219 11.183594 52.027344 C 11.027344 52.359375 10.910156 52.703125 10.835938 53.058594 C 10.757812 53.417969 10.726562 53.777344 10.738281 54.144531 C 10.75 54.511719 10.808594 54.867188 10.90625 55.21875 C 11.003906 55.574219 11.144531 55.90625 11.324219 56.226562 C 11.503906 56.542969 11.714844 56.835938 11.964844 57.105469 C 12.214844 57.371094 12.496094 57.605469 12.800781 57.804688 C 13.105469 58.003906 13.433594 58.164062 13.777344 58.285156 C 14.121094 58.40625 14.476562 58.484375 14.839844 58.519531 C 15.203125 58.554688 15.566406 58.546875 15.929688 58.496094 C 16.289062 58.445312 16.640625 58.351562 16.980469 58.214844 C 17.320312 58.078125 17.636719 57.90625 17.933594 57.691406 C 18.230469 57.480469 18.5 57.234375 18.738281 56.957031 C 18.976562 56.679688 19.175781 56.378906 19.34375 56.050781 C 19.507812 55.726562 19.632812 55.382812 19.714844 55.027344 C 19.796875 54.671875 19.835938 54.3125 19.832031 53.945312 Z M 13.011719 53.945312 C 13.011719 53.644531 13.070312 53.355469 13.183594 53.078125 C 13.300781 52.796875 13.464844 52.550781 13.675781 52.339844 C 13.890625 52.125 14.136719 51.960938 14.414062 51.84375 C 14.695312 51.730469 14.984375 51.671875 15.285156 51.671875 C 15.585938 51.671875 15.878906 51.730469 16.15625 51.84375 C 16.433594 51.960938 16.679688 52.125 16.894531 52.339844 C 17.105469 52.550781 17.269531 52.796875 17.386719 53.078125 C 17.503906 53.355469 17.558594 53.644531 17.558594 53.945312 C 17.558594 54.25 17.503906 54.539062 17.386719 54.816406 C 17.269531 55.09375 17.105469 55.339844 16.894531 55.554688 C 16.679688 55.769531 16.433594 55.933594 16.15625 56.046875 C 15.878906 56.164062 15.585938 56.222656 15.285156 56.222656 C 14.984375 56.222656 14.695312 56.164062 14.414062 56.046875 C 14.136719 55.933594 13.890625 55.769531 13.675781 55.554688 C 13.464844 55.339844 13.300781 55.09375 13.183594 54.816406 C 13.070312 54.539062 13.011719 54.25 13.011719 53.945312 Z M 13.011719 53.945312 " fill-opacity="1" fill-rule="nonzero"/><path fill="#ffffff" d="M 27.792969 55.082031 L 36.890625 55.082031 L 36.890625 57.359375 L 27.792969 57.359375 Z M 27.792969 55.082031 " fill-opacity="1" fill-rule="nonzero"/><path fill="#ffffff" d="M 75.550781 55.082031 L 77.824219 55.082031 L 77.824219 57.359375 L 75.550781 57.359375 Z M 75.550781 55.082031 " fill-opacity="1" fill-rule="nonzero"/><path fill="#ffffff" d="M 75.550781 59.632812 L 77.824219 59.632812 L 77.824219 61.90625 L 75.550781 61.90625 Z M 75.550781 59.632812 " fill-opacity="1" fill-rule="nonzero"/><g clip-path="url(#id3)"><path fill="#ffffff" d="M 77.824219 57.359375 L 80.101562 57.359375 L 80.101562 59.632812 L 77.824219 59.632812 Z M 77.824219 57.359375 " fill-opacity="1" fill-rule="nonzero"/></g><path fill="#ffffff" d="M 73.277344 57.359375 L 75.550781 57.359375 L 75.550781 59.632812 L 73.277344 59.632812 Z M 73.277344 57.359375 " fill-opacity="1" fill-rule="nonzero"/><g clip-path="url(#id4)"><path fill="#ffffff" d="M 11.875 9.601562 L 14.148438 9.601562 L 14.148438 11.875 L 11.875 11.875 Z M 11.875 9.601562 " fill-opacity="1" fill-rule="nonzero"/></g><path fill="#ffffff" d="M 11.875 14.148438 L 14.148438 14.148438 L 14.148438 16.421875 L 11.875 16.421875 Z M 11.875 14.148438 " fill-opacity="1" fill-rule="nonzero"/><path fill="#ffffff" d="M 14.148438 11.875 L 16.421875 11.875 L 16.421875 14.148438 L 14.148438 14.148438 Z M 14.148438 11.875 " fill-opacity="1" fill-rule="nonzero"/><g clip-path="url(#id5)"><path fill="#ffffff" d="M 9.601562 11.875 L 11.875 11.875 L 11.875 14.148438 L 9.601562 14.148438 Z M 9.601562 11.875 " fill-opacity="1" fill-rule="nonzero"/></g><g clip-path="url(#id6)"><path fill="#ffffff" d="M 20.972656 9.601562 L 23.246094 9.601562 L 23.246094 11.875 L 20.972656 11.875 Z M 20.972656 9.601562 " fill-opacity="1" fill-rule="nonzero"/></g><path fill="#ffffff" d="M 20.972656 14.148438 L 23.246094 14.148438 L 23.246094 16.421875 L 20.972656 16.421875 Z M 20.972656 14.148438 " fill-opacity="1" fill-rule="nonzero"/><path fill="#ffffff" d="M 23.246094 11.875 L 25.519531 11.875 L 25.519531 14.148438 L 23.246094 14.148438 Z M 23.246094 11.875 " fill-opacity="1" fill-rule="nonzero"/><path fill="#ffffff" d="M 18.695312 11.875 L 20.972656 11.875 L 20.972656 14.148438 L 18.695312 14.148438 Z M 18.695312 11.875 " fill-opacity="1" fill-rule="nonzero"/></svg>