<svg xmlns="http://www.w3.org/2000/svg" xmlns:xlink="http://www.w3.org/1999/xlink" width="120" zoomAndPan="magnify" viewBox="0 0 90 89.999999" height="120" preserveAspectRatio="xMidYMid meet" version="1.0"><defs><clipPath id="id1"><path d="M 55 59 L 80.664062 59 L 80.664062 80.664062 L 55 80.664062 Z M 55 59 " clip-rule="nonzero"/></clipPath><clipPath id="id2"><path d="M 31 60 L 59 60 L 59 80.664062 L 31 80.664062 Z M 31 60 " clip-rule="nonzero"/></clipPath><clipPath id="id3"><path d="M 9.414062 79 L 35 79 L 35 80.664062 L 9.414062 80.664062 Z M 9.414062 79 " clip-rule="nonzero"/></clipPath><clipPath id="id4"><path d="M 14 9.414062 L 80 9.414062 L 80 30 L 14 30 Z M 14 9.414062 " clip-rule="nonzero"/></clipPath></defs><path fill="#ffffff" d="M 66.835938 60.011719 C 66.308594 60.011719 65.789062 59.957031 65.269531 59.855469 C 64.753906 59.753906 64.25 59.601562 63.761719 59.398438 C 63.277344 59.195312 62.8125 58.949219 62.375 58.65625 C 61.9375 58.363281 61.53125 58.03125 61.15625 57.65625 C 60.785156 57.285156 60.453125 56.878906 60.160156 56.441406 C 59.867188 56.003906 59.617188 55.539062 59.417969 55.050781 C 59.214844 54.566406 59.0625 54.0625 58.960938 53.546875 C 58.855469 53.027344 58.804688 52.507812 58.804688 51.980469 C 58.804688 51.453125 58.855469 50.929688 58.960938 50.410156 C 59.0625 49.894531 59.214844 49.394531 59.417969 48.90625 C 59.617188 48.417969 59.867188 47.957031 60.160156 47.515625 C 60.453125 47.078125 60.785156 46.671875 61.15625 46.300781 C 61.53125 45.925781 61.9375 45.59375 62.375 45.300781 C 62.8125 45.007812 63.277344 44.761719 63.761719 44.558594 C 64.25 44.355469 64.753906 44.203125 65.269531 44.101562 C 65.789062 44 66.308594 43.949219 66.835938 43.949219 C 67.363281 43.949219 67.886719 44 68.402344 44.101562 C 68.921875 44.203125 69.421875 44.355469 69.910156 44.558594 C 70.398438 44.761719 70.859375 45.007812 71.300781 45.300781 C 71.738281 45.59375 72.144531 45.925781 72.515625 46.300781 C 72.890625 46.671875 73.222656 47.078125 73.515625 47.515625 C 73.808594 47.957031 74.054688 48.417969 74.257812 48.90625 C 74.457031 49.394531 74.609375 49.894531 74.714844 50.410156 C 74.816406 50.929688 74.867188 51.453125 74.867188 51.980469 C 74.867188 52.507812 74.816406 53.027344 74.714844 53.546875 C 74.609375 54.0625 74.457031 54.566406 74.257812 55.050781 C 74.054688 55.539062 73.808594 56.003906 73.515625 56.441406 C 73.222656 56.878906 72.890625 57.285156 72.515625 57.65625 C 72.144531 58.03125 71.738281 58.363281 71.300781 58.65625 C 70.859375 58.949219 70.398438 59.195312 69.910156 59.398438 C 69.421875 59.601562 68.921875 59.753906 68.402344 59.855469 C 67.886719 59.957031 67.363281 60.011719 66.835938 60.011719 Z M 66.835938 45.09375 C 66.386719 45.09375 65.9375 45.140625 65.492188 45.226562 C 65.050781 45.316406 64.621094 45.445312 64.203125 45.617188 C 63.785156 45.792969 63.386719 46.003906 63.011719 46.253906 C 62.636719 46.507812 62.289062 46.792969 61.96875 47.109375 C 61.648438 47.429688 61.363281 47.777344 61.113281 48.15625 C 60.863281 48.53125 60.648438 48.925781 60.476562 49.34375 C 60.304688 49.761719 60.171875 50.191406 60.085938 50.636719 C 59.996094 51.078125 59.953125 51.527344 59.953125 51.980469 C 59.953125 52.429688 59.996094 52.878906 60.085938 53.320312 C 60.171875 53.765625 60.304688 54.195312 60.476562 54.613281 C 60.648438 55.03125 60.863281 55.425781 61.113281 55.804688 C 61.363281 56.179688 61.648438 56.527344 61.96875 56.847656 C 62.289062 57.167969 62.636719 57.453125 63.011719 57.703125 C 63.386719 57.953125 63.785156 58.164062 64.203125 58.339844 C 64.621094 58.511719 65.050781 58.640625 65.492188 58.730469 C 65.9375 58.820312 66.386719 58.863281 66.835938 58.863281 C 67.289062 58.863281 67.738281 58.820312 68.179688 58.730469 C 68.625 58.640625 69.054688 58.511719 69.472656 58.339844 C 69.890625 58.164062 70.285156 57.953125 70.660156 57.703125 C 71.039062 57.453125 71.386719 57.167969 71.703125 56.847656 C 72.023438 56.527344 72.308594 56.179688 72.5625 55.804688 C 72.8125 55.425781 73.023438 55.03125 73.195312 54.613281 C 73.371094 54.195312 73.5 53.765625 73.589844 53.320312 C 73.675781 52.878906 73.722656 52.429688 73.722656 51.980469 C 73.722656 51.527344 73.675781 51.078125 73.589844 50.636719 C 73.5 50.191406 73.371094 49.761719 73.195312 49.34375 C 73.023438 48.925781 72.8125 48.53125 72.5625 48.15625 C 72.308594 47.777344 72.023438 47.429688 71.703125 47.109375 C 71.386719 46.792969 71.039062 46.507812 70.660156 46.253906 C 70.285156 46.003906 69.890625 45.792969 69.472656 45.617188 C 69.054688 45.445312 68.625 45.316406 68.179688 45.226562 C 67.738281 45.140625 67.289062 45.09375 66.835938 45.09375 Z M 66.835938 45.09375 " fill-opacity="1" fill-rule="nonzero"/><g clip-path="url(#id1)"><path fill="#ffffff" d="M 80.03125 80.664062 L 57.085938 80.664062 C 56.925781 80.664062 56.789062 80.605469 56.679688 80.496094 C 56.566406 80.382812 56.511719 80.246094 56.511719 80.089844 C 56.511719 79.929688 56.566406 79.796875 56.679688 79.683594 C 56.789062 79.570312 56.925781 79.515625 57.085938 79.515625 L 79.378906 79.515625 L 77.21875 62.214844 L 72.183594 61.15625 L 70.105469 63.234375 C 70 63.351562 69.863281 63.410156 69.707031 63.40625 L 63.96875 63.40625 C 63.808594 63.410156 63.675781 63.351562 63.566406 63.234375 L 61.492188 61.15625 L 56.050781 62.304688 C 55.890625 62.34375 55.742188 62.316406 55.605469 62.226562 C 55.46875 62.136719 55.390625 62.007812 55.363281 61.847656 C 55.328125 61.6875 55.355469 61.539062 55.445312 61.402344 C 55.535156 61.269531 55.664062 61.1875 55.824219 61.15625 L 61.558594 60.011719 C 61.761719 59.96875 61.933594 60.023438 62.074219 60.171875 L 64.210938 62.304688 L 69.464844 62.304688 L 71.597656 60.183594 C 71.742188 60.035156 71.914062 59.976562 72.113281 60.011719 L 77.851562 61.15625 C 78.125 61.210938 78.277344 61.375 78.308594 61.652344 L 80.605469 80.007812 C 80.617188 80.175781 80.574219 80.324219 80.46875 80.457031 C 80.351562 80.589844 80.207031 80.65625 80.03125 80.664062 Z M 80.03125 80.664062 " fill-opacity="1" fill-rule="nonzero"/></g><path fill="#ffffff" d="M 45.039062 60.011719 C 44.511719 60.011719 43.988281 59.957031 43.46875 59.855469 C 42.953125 59.753906 42.453125 59.601562 41.964844 59.398438 C 41.476562 59.195312 41.015625 58.949219 40.574219 58.65625 C 40.136719 58.363281 39.730469 58.03125 39.359375 57.65625 C 38.984375 57.285156 38.652344 56.878906 38.359375 56.441406 C 38.066406 56.003906 37.820312 55.539062 37.617188 55.050781 C 37.414062 54.566406 37.261719 54.0625 37.160156 53.546875 C 37.058594 53.027344 37.007812 52.507812 37.007812 51.980469 C 37.007812 51.453125 37.058594 50.929688 37.160156 50.410156 C 37.261719 49.894531 37.414062 49.394531 37.617188 48.90625 C 37.820312 48.417969 38.066406 47.957031 38.359375 47.515625 C 38.652344 47.078125 38.984375 46.671875 39.359375 46.300781 C 39.730469 45.925781 40.136719 45.59375 40.574219 45.300781 C 41.015625 45.007812 41.476562 44.761719 41.964844 44.558594 C 42.453125 44.355469 42.953125 44.203125 43.46875 44.101562 C 43.988281 44 44.511719 43.949219 45.039062 43.949219 C 45.566406 43.949219 46.085938 44 46.605469 44.101562 C 47.121094 44.203125 47.625 44.355469 48.109375 44.558594 C 48.597656 44.761719 49.0625 45.007812 49.5 45.300781 C 49.9375 45.59375 50.34375 45.925781 50.714844 46.300781 C 51.089844 46.671875 51.421875 47.078125 51.714844 47.515625 C 52.007812 47.957031 52.253906 48.417969 52.457031 48.90625 C 52.660156 49.394531 52.8125 49.894531 52.914062 50.410156 C 53.015625 50.929688 53.070312 51.453125 53.070312 51.980469 C 53.070312 52.507812 53.015625 53.027344 52.914062 53.546875 C 52.8125 54.0625 52.660156 54.566406 52.457031 55.050781 C 52.253906 55.539062 52.007812 56.003906 51.714844 56.441406 C 51.421875 56.878906 51.089844 57.285156 50.714844 57.65625 C 50.34375 58.03125 49.9375 58.363281 49.5 58.65625 C 49.0625 58.949219 48.597656 59.195312 48.109375 59.398438 C 47.625 59.601562 47.121094 59.753906 46.605469 59.855469 C 46.085938 59.957031 45.566406 60.011719 45.039062 60.011719 Z M 45.039062 45.09375 C 44.585938 45.09375 44.136719 45.140625 43.695312 45.226562 C 43.25 45.316406 42.820312 45.445312 42.402344 45.617188 C 41.984375 45.792969 41.589844 46.003906 41.214844 46.253906 C 40.835938 46.507812 40.488281 46.792969 40.167969 47.109375 C 39.851562 47.429688 39.566406 47.777344 39.3125 48.15625 C 39.0625 48.53125 38.851562 48.925781 38.675781 49.34375 C 38.503906 49.761719 38.375 50.191406 38.285156 50.636719 C 38.199219 51.078125 38.152344 51.527344 38.152344 51.980469 C 38.152344 52.429688 38.199219 52.878906 38.285156 53.320312 C 38.375 53.765625 38.503906 54.195312 38.675781 54.613281 C 38.851562 55.03125 39.0625 55.425781 39.3125 55.804688 C 39.566406 56.179688 39.851562 56.527344 40.167969 56.847656 C 40.488281 57.167969 40.835938 57.453125 41.214844 57.703125 C 41.589844 57.953125 41.984375 58.164062 42.402344 58.339844 C 42.820312 58.511719 43.25 58.640625 43.695312 58.730469 C 44.136719 58.820312 44.585938 58.863281 45.039062 58.863281 C 45.488281 58.863281 45.9375 58.820312 46.378906 58.730469 C 46.824219 58.640625 47.253906 58.511719 47.671875 58.339844 C 48.089844 58.164062 48.484375 57.953125 48.863281 57.703125 C 49.238281 57.453125 49.585938 57.167969 49.90625 56.847656 C 50.226562 56.527344 50.511719 56.179688 50.761719 55.804688 C 51.011719 55.425781 51.222656 55.03125 51.398438 54.613281 C 51.570312 54.195312 51.699219 53.765625 51.789062 53.320312 C 51.878906 52.878906 51.921875 52.429688 51.921875 51.980469 C 51.921875 51.527344 51.878906 51.078125 51.789062 50.636719 C 51.699219 50.191406 51.570312 49.761719 51.398438 49.34375 C 51.222656 48.925781 51.011719 48.53125 50.761719 48.15625 C 50.511719 47.777344 50.226562 47.429688 49.90625 47.109375 C 49.585938 46.792969 49.238281 46.507812 48.863281 46.253906 C 48.484375 46.003906 48.089844 45.792969 47.671875 45.617188 C 47.253906 45.445312 46.824219 45.316406 46.378906 45.226562 C 45.9375 45.140625 45.488281 45.09375 45.039062 45.09375 Z M 45.039062 45.09375 " fill-opacity="1" fill-rule="nonzero"/><g clip-path="url(#id2)"><path fill="#ffffff" d="M 58.230469 80.664062 L 31.84375 80.664062 C 31.667969 80.660156 31.523438 80.597656 31.40625 80.46875 C 31.300781 80.335938 31.253906 80.1875 31.269531 80.019531 L 33.5625 61.664062 C 33.597656 61.386719 33.75 61.222656 34.023438 61.167969 L 39.757812 60.023438 C 39.960938 59.980469 40.132812 60.035156 40.277344 60.183594 L 42.410156 62.304688 L 47.664062 62.304688 L 49.800781 60.183594 C 49.9375 60.03125 50.113281 59.972656 50.316406 60.011719 L 56.050781 61.15625 C 56.324219 61.210938 56.476562 61.375 56.511719 61.652344 L 58.804688 80.007812 C 58.820312 80.175781 58.773438 80.324219 58.667969 80.457031 C 58.554688 80.589844 58.40625 80.65625 58.230469 80.664062 Z M 32.496094 79.515625 L 57.578125 79.515625 L 55.421875 62.214844 L 50.382812 61.15625 L 48.308594 63.234375 C 48.199219 63.351562 48.066406 63.410156 47.90625 63.40625 L 42.167969 63.40625 C 42.011719 63.410156 41.875 63.351562 41.765625 63.234375 L 39.691406 61.15625 L 34.710938 62.214844 Z M 32.496094 79.515625 " fill-opacity="1" fill-rule="nonzero"/></g><path fill="#ffffff" d="M 23.238281 60.011719 C 22.710938 60.011719 22.1875 59.957031 21.671875 59.855469 C 21.152344 59.753906 20.652344 59.601562 20.164062 59.398438 C 19.675781 59.195312 19.214844 58.949219 18.777344 58.65625 C 18.335938 58.363281 17.933594 58.03125 17.558594 57.65625 C 17.1875 57.285156 16.851562 56.878906 16.558594 56.441406 C 16.265625 56.003906 16.019531 55.539062 15.816406 55.050781 C 15.617188 54.566406 15.464844 54.0625 15.359375 53.546875 C 15.257812 53.027344 15.207031 52.507812 15.207031 51.980469 C 15.207031 51.453125 15.257812 50.929688 15.359375 50.410156 C 15.464844 49.894531 15.617188 49.394531 15.816406 48.90625 C 16.019531 48.417969 16.265625 47.957031 16.558594 47.515625 C 16.851562 47.078125 17.1875 46.671875 17.558594 46.300781 C 17.933594 45.925781 18.335938 45.59375 18.777344 45.300781 C 19.214844 45.007812 19.675781 44.761719 20.164062 44.558594 C 20.652344 44.355469 21.152344 44.203125 21.671875 44.101562 C 22.1875 44 22.710938 43.949219 23.238281 43.949219 C 23.765625 43.949219 24.289062 44 24.804688 44.101562 C 25.320312 44.203125 25.824219 44.355469 26.3125 44.558594 C 26.796875 44.761719 27.261719 45.007812 27.699219 45.300781 C 28.136719 45.59375 28.542969 45.925781 28.917969 46.300781 C 29.289062 46.671875 29.621094 47.078125 29.914062 47.515625 C 30.207031 47.957031 30.457031 48.417969 30.65625 48.90625 C 30.859375 49.394531 31.011719 49.894531 31.113281 50.410156 C 31.21875 50.929688 31.269531 51.453125 31.269531 51.980469 C 31.269531 52.507812 31.21875 53.027344 31.113281 53.546875 C 31.011719 54.0625 30.859375 54.566406 30.65625 55.050781 C 30.457031 55.539062 30.207031 56.003906 29.914062 56.441406 C 29.621094 56.878906 29.289062 57.285156 28.917969 57.65625 C 28.542969 58.03125 28.136719 58.363281 27.699219 58.65625 C 27.261719 58.949219 26.796875 59.195312 26.3125 59.398438 C 25.824219 59.601562 25.320312 59.753906 24.804688 59.855469 C 24.289062 59.957031 23.765625 60.011719 23.238281 60.011719 Z M 23.238281 45.09375 C 22.785156 45.09375 22.339844 45.140625 21.894531 45.226562 C 21.453125 45.316406 21.019531 45.445312 20.605469 45.617188 C 20.1875 45.792969 19.789062 46.003906 19.414062 46.253906 C 19.039062 46.507812 18.691406 46.792969 18.371094 47.109375 C 18.050781 47.429688 17.765625 47.777344 17.515625 48.15625 C 17.261719 48.53125 17.050781 48.925781 16.878906 49.34375 C 16.703125 49.761719 16.574219 50.191406 16.484375 50.636719 C 16.398438 51.078125 16.355469 51.527344 16.355469 51.980469 C 16.355469 52.429688 16.398438 52.878906 16.484375 53.320312 C 16.574219 53.765625 16.703125 54.195312 16.878906 54.613281 C 17.050781 55.03125 17.261719 55.425781 17.515625 55.804688 C 17.765625 56.179688 18.050781 56.527344 18.371094 56.847656 C 18.691406 57.167969 19.039062 57.453125 19.414062 57.703125 C 19.789062 57.953125 20.1875 58.164062 20.605469 58.339844 C 21.019531 58.511719 21.453125 58.640625 21.894531 58.730469 C 22.339844 58.820312 22.785156 58.863281 23.238281 58.863281 C 23.691406 58.863281 24.136719 58.820312 24.582031 58.730469 C 25.023438 58.640625 25.453125 58.511719 25.871094 58.339844 C 26.289062 58.164062 26.6875 57.953125 27.0625 57.703125 C 27.4375 57.453125 27.785156 57.167969 28.105469 56.847656 C 28.425781 56.527344 28.710938 56.179688 28.960938 55.804688 C 29.214844 55.425781 29.425781 55.03125 29.597656 54.613281 C 29.769531 54.195312 29.902344 53.765625 29.988281 53.320312 C 30.078125 52.878906 30.121094 52.429688 30.121094 51.980469 C 30.121094 51.527344 30.078125 51.078125 29.988281 50.636719 C 29.902344 50.191406 29.769531 49.761719 29.597656 49.34375 C 29.425781 48.925781 29.214844 48.53125 28.960938 48.15625 C 28.710938 47.777344 28.425781 47.429688 28.105469 47.109375 C 27.785156 46.792969 27.4375 46.507812 27.0625 46.253906 C 26.6875 46.003906 26.289062 45.792969 25.871094 45.617188 C 25.453125 45.445312 25.023438 45.316406 24.582031 45.226562 C 24.136719 45.140625 23.691406 45.09375 23.238281 45.09375 Z M 23.238281 45.09375 " fill-opacity="1" fill-rule="nonzero"/><path fill="#ffffff" d="M 27.828125 53.125 C 26.390625 53.125 25.011719 52.839844 23.695312 52.265625 C 22.378906 51.691406 21.230469 50.875 20.253906 49.820312 C 19.132812 51.257812 17.695312 52.242188 15.953125 52.769531 C 15.792969 52.816406 15.640625 52.800781 15.496094 52.722656 C 15.351562 52.640625 15.257812 52.523438 15.210938 52.363281 C 15.164062 52.203125 15.183594 52.054688 15.261719 51.910156 C 15.339844 51.765625 15.460938 51.667969 15.621094 51.625 C 16.476562 51.375 17.265625 50.984375 17.984375 50.453125 C 18.703125 49.921875 19.304688 49.285156 19.796875 48.535156 C 19.898438 48.371094 20.046875 48.285156 20.242188 48.273438 C 20.445312 48.257812 20.605469 48.332031 20.726562 48.492188 C 21.585938 49.578125 22.636719 50.429688 23.882812 51.039062 C 25.125 51.652344 26.441406 51.964844 27.828125 51.980469 C 28.746094 51.976562 29.644531 51.84375 30.523438 51.578125 C 30.683594 51.527344 30.835938 51.539062 30.984375 51.617188 C 31.128906 51.699219 31.226562 51.816406 31.269531 51.980469 C 31.3125 52.128906 31.300781 52.273438 31.226562 52.414062 C 31.152344 52.550781 31.039062 52.644531 30.890625 52.691406 C 29.890625 52.992188 28.871094 53.140625 27.828125 53.125 Z M 27.828125 53.125 " fill-opacity="1" fill-rule="nonzero"/><path fill="#ffffff" d="M 49.625 53.125 C 48.191406 53.125 46.8125 52.839844 45.496094 52.265625 C 44.179688 51.691406 43.03125 50.875 42.054688 49.820312 C 40.929688 51.257812 39.496094 52.242188 37.75 52.769531 C 37.59375 52.816406 37.441406 52.800781 37.296875 52.71875 C 37.152344 52.640625 37.058594 52.523438 37.011719 52.363281 C 36.964844 52.203125 36.984375 52.054688 37.0625 51.910156 C 37.140625 51.765625 37.261719 51.667969 37.417969 51.625 C 38.277344 51.375 39.066406 50.984375 39.78125 50.453125 C 40.5 49.921875 41.105469 49.285156 41.59375 48.535156 C 41.699219 48.371094 41.847656 48.285156 42.042969 48.273438 C 42.242188 48.257812 42.402344 48.332031 42.523438 48.492188 C 43.382812 49.578125 44.4375 50.429688 45.679688 51.039062 C 46.925781 51.652344 48.242188 51.964844 49.625 51.980469 C 50.546875 51.976562 51.445312 51.84375 52.324219 51.578125 C 52.480469 51.527344 52.636719 51.539062 52.78125 51.617188 C 52.929688 51.699219 53.023438 51.816406 53.070312 51.980469 C 53.113281 52.128906 53.097656 52.273438 53.027344 52.414062 C 52.953125 52.550781 52.839844 52.644531 52.691406 52.691406 C 51.691406 52.992188 50.671875 53.140625 49.625 53.125 Z M 49.625 53.125 " fill-opacity="1" fill-rule="nonzero"/><path fill="#ffffff" d="M 71.425781 53.125 C 69.988281 53.125 68.613281 52.839844 67.296875 52.265625 C 65.976562 51.691406 64.832031 50.875 63.855469 49.820312 C 62.730469 51.257812 61.296875 52.242188 59.550781 52.769531 C 59.394531 52.816406 59.242188 52.800781 59.097656 52.71875 C 58.953125 52.640625 58.855469 52.523438 58.8125 52.363281 C 58.765625 52.203125 58.78125 52.054688 58.863281 51.910156 C 58.941406 51.765625 59.058594 51.667969 59.21875 51.625 C 60.078125 51.375 60.863281 50.984375 61.582031 50.453125 C 62.300781 49.921875 62.90625 49.285156 63.394531 48.535156 C 63.449219 48.460938 63.515625 48.402344 63.597656 48.363281 C 63.679688 48.320312 63.769531 48.300781 63.859375 48.300781 C 63.953125 48.300781 64.039062 48.320312 64.121094 48.363281 C 64.203125 48.402344 64.269531 48.460938 64.324219 48.535156 C 65.1875 49.617188 66.242188 50.457031 67.488281 51.058594 C 68.730469 51.664062 70.042969 51.96875 71.425781 51.980469 C 72.34375 51.976562 73.242188 51.84375 74.121094 51.578125 C 74.28125 51.527344 74.433594 51.539062 74.582031 51.617188 C 74.730469 51.699219 74.824219 51.816406 74.867188 51.980469 C 74.914062 52.128906 74.898438 52.273438 74.824219 52.414062 C 74.75 52.550781 74.640625 52.644531 74.488281 52.691406 C 73.492188 52.992188 72.46875 53.140625 71.425781 53.125 Z M 71.425781 53.125 " fill-opacity="1" fill-rule="nonzero"/><path fill="#ffffff" d="M 11.328125 70.335938 L 11.257812 70.335938 C 11.101562 70.320312 10.976562 70.246094 10.878906 70.125 C 10.777344 70 10.738281 69.863281 10.753906 69.707031 L 11.765625 61.675781 C 11.789062 61.386719 11.941406 61.214844 12.222656 61.15625 L 17.960938 60.011719 C 18.160156 59.96875 18.332031 60.023438 18.476562 60.171875 L 20.609375 62.304688 L 25.867188 62.304688 L 28 60.183594 C 28.140625 60.03125 28.3125 59.972656 28.515625 60.011719 L 34.253906 61.15625 C 34.40625 61.1875 34.527344 61.269531 34.617188 61.402344 C 34.703125 61.535156 34.730469 61.679688 34.699219 61.835938 C 34.671875 61.992188 34.589844 62.113281 34.457031 62.203125 C 34.324219 62.289062 34.179688 62.316406 34.023438 62.28125 L 28.585938 61.132812 L 26.507812 63.210938 C 26.398438 63.328125 26.265625 63.386719 26.105469 63.382812 L 20.371094 63.382812 C 20.210938 63.386719 20.078125 63.328125 19.96875 63.210938 L 17.890625 61.15625 L 12.910156 62.214844 L 11.902344 69.878906 C 11.871094 70.011719 11.804688 70.121094 11.695312 70.207031 C 11.589844 70.292969 11.464844 70.335938 11.328125 70.335938 Z M 11.328125 70.335938 " fill-opacity="1" fill-rule="nonzero"/><path fill="#ffffff" d="M 10.617188 76.140625 L 10.535156 76.140625 C 10.378906 76.125 10.25 76.050781 10.152344 75.925781 C 10.054688 75.800781 10.019531 75.65625 10.042969 75.5 L 10.34375 73.125 C 10.363281 72.964844 10.4375 72.839844 10.5625 72.742188 C 10.6875 72.644531 10.832031 72.605469 10.988281 72.625 C 11.148438 72.644531 11.277344 72.71875 11.375 72.847656 C 11.472656 72.972656 11.511719 73.113281 11.488281 73.273438 L 11.191406 75.648438 C 11.167969 75.789062 11.101562 75.90625 10.996094 76 C 10.886719 76.09375 10.761719 76.140625 10.617188 76.140625 Z M 10.617188 76.140625 " fill-opacity="1" fill-rule="nonzero"/><g clip-path="url(#id3)"><path fill="#ffffff" d="M 34.136719 80.664062 L 10.042969 80.664062 C 9.886719 80.664062 9.75 80.605469 9.636719 80.496094 C 9.527344 80.382812 9.46875 80.246094 9.46875 80.089844 C 9.46875 79.929688 9.527344 79.796875 9.636719 79.683594 C 9.75 79.570312 9.886719 79.515625 10.042969 79.515625 L 34.136719 79.515625 C 34.296875 79.515625 34.429688 79.570312 34.542969 79.683594 C 34.65625 79.796875 34.710938 79.929688 34.710938 80.089844 C 34.710938 80.246094 34.65625 80.382812 34.542969 80.496094 C 34.429688 80.605469 34.296875 80.664062 34.136719 80.664062 Z M 34.136719 80.664062 " fill-opacity="1" fill-rule="nonzero"/></g><g clip-path="url(#id4)"><path fill="#ffffff" d="M 31.167969 29.03125 L 14.632812 29.03125 C 14.472656 29.03125 14.339844 28.976562 14.226562 28.863281 C 14.117188 28.753906 14.058594 28.617188 14.058594 28.457031 L 14.058594 26.164062 C 14.058594 26.003906 14.117188 25.871094 14.226562 25.757812 C 14.339844 25.644531 14.472656 25.589844 14.632812 25.589844 L 29.984375 25.589844 L 36.695312 18.878906 C 36.808594 18.761719 36.945312 18.703125 37.109375 18.707031 L 51.785156 18.707031 L 58.496094 11.992188 C 58.609375 11.875 58.746094 11.820312 58.910156 11.820312 L 74.867188 11.820312 L 74.867188 10.101562 C 74.847656 9.824219 74.964844 9.632812 75.222656 9.527344 C 75.460938 9.417969 75.667969 9.460938 75.84375 9.652344 L 79.285156 13.09375 C 79.402344 13.203125 79.460938 13.339844 79.460938 13.496094 C 79.460938 13.65625 79.402344 13.789062 79.285156 13.898438 L 75.84375 17.339844 C 75.667969 17.53125 75.460938 17.574219 75.222656 17.46875 C 75.007812 17.378906 74.886719 17.21875 74.867188 16.984375 L 74.867188 15.265625 L 60.089844 15.265625 L 53.378906 21.976562 C 53.265625 22.09375 53.128906 22.148438 52.964844 22.148438 L 38.292969 22.148438 L 31.578125 28.859375 C 31.464844 28.976562 31.328125 29.035156 31.167969 29.03125 Z M 15.207031 27.882812 L 30.9375 27.882812 L 37.648438 21.171875 C 37.757812 21.054688 37.890625 21 38.050781 21 L 52.734375 21 L 59.449219 14.289062 C 59.554688 14.171875 59.691406 14.113281 59.851562 14.117188 L 75.441406 14.117188 C 75.601562 14.117188 75.734375 14.171875 75.847656 14.285156 C 75.960938 14.398438 76.015625 14.53125 76.015625 14.691406 L 76.015625 15.597656 L 78.070312 13.542969 L 76.015625 11.488281 L 76.015625 12.394531 C 76.015625 12.554688 75.960938 12.6875 75.847656 12.800781 C 75.734375 12.914062 75.601562 12.96875 75.441406 12.96875 L 59.136719 12.96875 L 52.425781 19.679688 C 52.316406 19.796875 52.183594 19.855469 52.023438 19.851562 L 37.339844 19.851562 L 30.625 26.566406 C 30.519531 26.683594 30.382812 26.738281 30.226562 26.738281 L 15.207031 26.738281 Z M 15.207031 27.882812 " fill-opacity="1" fill-rule="nonzero"/></g><path fill="#ffffff" d="M 73.148438 41.652344 L 60.527344 41.652344 C 60.367188 41.652344 60.234375 41.597656 60.121094 41.484375 C 60.007812 41.371094 59.953125 41.238281 59.953125 41.078125 L 59.953125 19.28125 C 59.953125 19.121094 60.007812 18.984375 60.121094 18.875 C 60.234375 18.761719 60.367188 18.707031 60.527344 18.707031 L 73.148438 18.707031 C 73.304688 18.707031 73.441406 18.761719 73.554688 18.875 C 73.664062 18.984375 73.722656 19.121094 73.722656 19.28125 C 73.722656 19.4375 73.664062 19.574219 73.554688 19.683594 C 73.441406 19.796875 73.304688 19.851562 73.148438 19.851562 L 61.101562 19.851562 L 61.101562 40.503906 L 72.574219 40.503906 L 72.574219 29.605469 C 72.574219 29.449219 72.628906 29.3125 72.742188 29.199219 C 72.855469 29.089844 72.988281 29.03125 73.148438 29.03125 C 73.304688 29.03125 73.441406 29.089844 73.554688 29.199219 C 73.664062 29.3125 73.722656 29.449219 73.722656 29.605469 L 73.722656 41.078125 C 73.722656 41.238281 73.664062 41.371094 73.554688 41.484375 C 73.441406 41.597656 73.304688 41.652344 73.148438 41.652344 Z M 73.148438 41.652344 " fill-opacity="1" fill-rule="nonzero"/><path fill="#ffffff" d="M 51.347656 41.652344 L 38.726562 41.652344 C 38.570312 41.652344 38.433594 41.597656 38.320312 41.484375 C 38.210938 41.371094 38.152344 41.238281 38.152344 41.078125 L 38.152344 26.164062 C 38.152344 26.003906 38.210938 25.871094 38.320312 25.757812 C 38.433594 25.644531 38.570312 25.589844 38.726562 25.589844 L 51.347656 25.589844 C 51.507812 25.589844 51.640625 25.644531 51.753906 25.757812 C 51.867188 25.871094 51.921875 26.003906 51.921875 26.164062 L 51.921875 41.078125 C 51.921875 41.238281 51.867188 41.371094 51.753906 41.484375 C 51.640625 41.597656 51.507812 41.652344 51.347656 41.652344 Z M 39.300781 40.503906 L 50.773438 40.503906 L 50.773438 26.738281 L 39.300781 26.738281 Z M 39.300781 40.503906 " fill-opacity="1" fill-rule="nonzero"/><path fill="#ffffff" d="M 29.546875 41.652344 L 16.925781 41.652344 C 16.769531 41.652344 16.632812 41.597656 16.523438 41.484375 C 16.410156 41.371094 16.355469 41.238281 16.355469 41.078125 L 16.355469 33.046875 C 16.355469 32.890625 16.410156 32.753906 16.523438 32.640625 C 16.632812 32.53125 16.769531 32.472656 16.925781 32.472656 L 29.546875 32.472656 C 29.707031 32.472656 29.84375 32.53125 29.953125 32.640625 C 30.066406 32.753906 30.121094 32.890625 30.121094 33.046875 L 30.121094 41.078125 C 30.121094 41.238281 30.066406 41.371094 29.953125 41.484375 C 29.84375 41.597656 29.707031 41.652344 29.546875 41.652344 Z M 17.5 40.503906 L 28.976562 40.503906 L 28.976562 33.621094 L 17.5 33.621094 Z M 17.5 40.503906 " fill-opacity="1" fill-rule="nonzero"/><path fill="#ffffff" d="M 73.148438 26.738281 C 72.988281 26.738281 72.855469 26.679688 72.742188 26.570312 C 72.628906 26.457031 72.574219 26.320312 72.574219 26.164062 L 72.574219 23.867188 C 72.574219 23.710938 72.628906 23.574219 72.742188 23.464844 C 72.855469 23.351562 72.988281 23.296875 73.148438 23.296875 C 73.304688 23.296875 73.441406 23.351562 73.554688 23.464844 C 73.664062 23.574219 73.722656 23.710938 73.722656 23.867188 L 73.722656 26.164062 C 73.722656 26.320312 73.664062 26.457031 73.554688 26.570312 C 73.441406 26.679688 73.304688 26.738281 73.148438 26.738281 Z M 73.148438 26.738281 " fill-opacity="1" fill-rule="nonzero"/></svg>