<svg xmlns="http://www.w3.org/2000/svg" xmlns:xlink="http://www.w3.org/1999/xlink" width="120" zoomAndPan="magnify" viewBox="0 0 90 89.999999" height="120" preserveAspectRatio="xMidYMid meet" version="1.0"><defs><clipPath id="id1"><path d="M 8.210938 8.210938 L 81.710938 8.210938 L 81.710938 81.710938 L 8.210938 81.710938 Z M 8.210938 8.210938 " clip-rule="nonzero"/></clipPath></defs><g clip-path="url(#id1)"><path fill="#ffffff" d="M 80.488281 74.3125 L 79.265625 74.3125 L 79.265625 70.644531 C 79.265625 70.484375 79.234375 70.328125 79.171875 70.175781 C 79.113281 70.027344 79.023438 69.894531 78.910156 69.78125 C 78.792969 69.664062 78.660156 69.578125 78.511719 69.515625 C 78.363281 69.453125 78.207031 69.421875 78.042969 69.421875 L 74.375 69.421875 L 74.375 64.53125 C 74.375 64.367188 74.34375 64.210938 74.28125 64.0625 C 74.21875 63.910156 74.132812 63.78125 74.015625 63.664062 C 73.902344 63.550781 73.769531 63.460938 73.621094 63.398438 C 73.46875 63.339844 73.3125 63.308594 73.152344 63.308594 L 71.929688 63.308594 L 71.929688 38.847656 L 73.152344 38.847656 C 73.3125 38.847656 73.46875 38.816406 73.621094 38.753906 C 73.769531 38.691406 73.902344 38.605469 74.015625 38.488281 C 74.132812 38.375 74.21875 38.242188 74.28125 38.09375 C 74.34375 37.941406 74.375 37.785156 74.375 37.625 L 74.375 32.734375 L 76.820312 32.734375 C 76.984375 32.734375 77.140625 32.703125 77.289062 32.640625 C 77.4375 32.578125 77.570312 32.488281 77.683594 32.375 C 77.800781 32.261719 77.886719 32.128906 77.949219 31.976562 C 78.011719 31.828125 78.042969 31.671875 78.042969 31.511719 L 78.042969 27.839844 L 80.488281 27.839844 C 80.773438 27.839844 81.027344 27.75 81.25 27.570312 C 81.46875 27.394531 81.613281 27.164062 81.675781 26.886719 C 81.738281 26.609375 81.707031 26.34375 81.585938 26.085938 C 81.460938 25.832031 81.269531 25.640625 81.015625 25.515625 L 45.550781 8.394531 C 45.199219 8.230469 44.847656 8.230469 44.496094 8.394531 L 9.03125 25.515625 C 8.777344 25.640625 8.585938 25.832031 8.464844 26.085938 C 8.339844 26.34375 8.308594 26.609375 8.371094 26.886719 C 8.433594 27.164062 8.578125 27.394531 8.796875 27.570312 C 9.019531 27.75 9.273438 27.839844 9.558594 27.839844 L 12.003906 27.839844 L 12.003906 31.511719 C 12.003906 31.671875 12.035156 31.828125 12.097656 31.976562 C 12.160156 32.128906 12.246094 32.261719 12.363281 32.375 C 12.476562 32.488281 12.609375 32.578125 12.757812 32.640625 C 12.910156 32.703125 13.066406 32.734375 13.226562 32.734375 L 15.671875 32.734375 L 15.671875 37.625 C 15.671875 37.785156 15.703125 37.941406 15.765625 38.09375 C 15.828125 38.242188 15.917969 38.375 16.03125 38.488281 C 16.144531 38.605469 16.277344 38.691406 16.425781 38.753906 C 16.578125 38.816406 16.734375 38.847656 16.894531 38.847656 L 18.117188 38.847656 L 18.117188 63.308594 L 16.894531 63.308594 C 16.734375 63.308594 16.578125 63.339844 16.425781 63.398438 C 16.277344 63.460938 16.144531 63.550781 16.03125 63.664062 C 15.917969 63.78125 15.828125 63.910156 15.765625 64.0625 C 15.703125 64.210938 15.671875 64.367188 15.671875 64.53125 L 15.671875 69.421875 L 12.003906 69.421875 C 11.839844 69.421875 11.683594 69.453125 11.535156 69.515625 C 11.386719 69.578125 11.253906 69.664062 11.140625 69.78125 C 11.023438 69.894531 10.9375 70.027344 10.875 70.175781 C 10.8125 70.328125 10.78125 70.484375 10.78125 70.644531 L 10.78125 74.3125 L 9.558594 74.3125 C 9.394531 74.3125 9.238281 74.34375 9.089844 74.40625 C 8.941406 74.46875 8.808594 74.558594 8.691406 74.671875 C 8.578125 74.785156 8.488281 74.917969 8.429688 75.070312 C 8.367188 75.21875 8.335938 75.375 8.335938 75.535156 L 8.335938 80.429688 C 8.335938 80.589844 8.367188 80.746094 8.429688 80.894531 C 8.488281 81.046875 8.578125 81.179688 8.691406 81.292969 C 8.808594 81.40625 8.941406 81.496094 9.089844 81.558594 C 9.238281 81.621094 9.394531 81.652344 9.558594 81.652344 L 80.488281 81.652344 C 80.652344 81.652344 80.808594 81.621094 80.957031 81.558594 C 81.105469 81.496094 81.238281 81.40625 81.355469 81.292969 C 81.46875 81.179688 81.558594 81.046875 81.621094 80.894531 C 81.679688 80.746094 81.710938 80.589844 81.710938 80.429688 L 81.710938 75.535156 C 81.710938 75.375 81.679688 75.21875 81.621094 75.070312 C 81.558594 74.917969 81.46875 74.785156 81.355469 74.671875 C 81.238281 74.558594 81.105469 74.46875 80.957031 74.40625 C 80.808594 74.34375 80.652344 74.3125 80.488281 74.3125 Z M 71.929688 36.402344 L 62.144531 36.402344 L 62.144531 32.734375 L 71.929688 32.734375 Z M 29.125 63.308594 L 27.902344 63.308594 L 27.902344 38.847656 L 29.125 38.847656 C 29.289062 38.847656 29.441406 38.816406 29.59375 38.753906 C 29.742188 38.691406 29.875 38.605469 29.988281 38.488281 C 30.105469 38.375 30.191406 38.242188 30.253906 38.09375 C 30.316406 37.941406 30.347656 37.785156 30.347656 37.625 L 30.347656 32.734375 L 59.699219 32.734375 L 59.699219 37.625 C 59.699219 37.785156 59.730469 37.941406 59.792969 38.09375 C 59.855469 38.242188 59.941406 38.375 60.058594 38.488281 C 60.171875 38.605469 60.304688 38.691406 60.453125 38.753906 C 60.605469 38.816406 60.761719 38.847656 60.921875 38.847656 L 62.144531 38.847656 L 62.144531 63.308594 L 60.921875 63.308594 C 60.761719 63.308594 60.605469 63.339844 60.453125 63.398438 C 60.304688 63.460938 60.171875 63.550781 60.058594 63.664062 C 59.941406 63.78125 59.855469 63.910156 59.792969 64.0625 C 59.730469 64.210938 59.699219 64.367188 59.699219 64.53125 L 59.699219 69.421875 L 30.347656 69.421875 L 30.347656 64.53125 C 30.347656 64.367188 30.316406 64.210938 30.253906 64.0625 C 30.191406 63.910156 30.105469 63.78125 29.988281 63.664062 C 29.875 63.550781 29.742188 63.460938 29.59375 63.398438 C 29.441406 63.339844 29.289062 63.308594 29.125 63.308594 Z M 19.339844 36.402344 L 18.117188 36.402344 L 18.117188 32.734375 L 27.902344 32.734375 L 27.902344 36.402344 Z M 25.457031 38.847656 L 25.457031 63.308594 L 24.234375 63.308594 L 24.234375 38.847656 Z M 21.789062 38.847656 L 21.789062 63.308594 L 20.5625 63.308594 L 20.5625 38.847656 Z M 62.144531 65.753906 L 71.929688 65.753906 L 71.929688 69.421875 L 62.144531 69.421875 Z M 64.589844 63.308594 L 64.589844 38.847656 L 65.8125 38.847656 L 65.8125 63.308594 Z M 68.261719 63.308594 L 68.261719 38.847656 L 69.484375 38.847656 L 69.484375 63.308594 Z M 45.023438 10.855469 L 75.144531 25.394531 L 14.902344 25.394531 Z M 16.894531 30.285156 L 14.449219 30.285156 L 14.449219 27.839844 L 75.597656 27.839844 L 75.597656 30.285156 Z M 18.117188 65.753906 L 27.902344 65.753906 L 27.902344 69.421875 L 18.117188 69.421875 Z M 13.226562 71.867188 L 76.820312 71.867188 L 76.820312 74.3125 L 13.226562 74.3125 Z M 14.449219 79.207031 L 10.78125 79.207031 L 10.78125 76.757812 L 14.449219 76.757812 Z M 19.339844 79.207031 L 16.894531 79.207031 L 16.894531 76.757812 L 19.339844 76.757812 Z M 24.234375 79.207031 L 21.789062 79.207031 L 21.789062 76.757812 L 24.234375 76.757812 Z M 29.125 79.207031 L 26.679688 79.207031 L 26.679688 76.757812 L 29.125 76.757812 Z M 34.015625 79.207031 L 31.570312 79.207031 L 31.570312 76.757812 L 34.015625 76.757812 Z M 38.910156 79.207031 L 36.464844 79.207031 L 36.464844 76.757812 L 38.910156 76.757812 Z M 43.800781 79.207031 L 41.355469 79.207031 L 41.355469 76.757812 L 43.800781 76.757812 Z M 48.691406 79.207031 L 46.246094 79.207031 L 46.246094 76.757812 L 48.691406 76.757812 Z M 53.585938 79.207031 L 51.136719 79.207031 L 51.136719 76.757812 L 53.585938 76.757812 Z M 58.476562 79.207031 L 56.03125 79.207031 L 56.03125 76.757812 L 58.476562 76.757812 Z M 63.367188 79.207031 L 60.921875 79.207031 L 60.921875 76.757812 L 63.367188 76.757812 Z M 68.261719 79.207031 L 65.8125 79.207031 L 65.8125 76.757812 L 68.261719 76.757812 Z M 73.152344 79.207031 L 70.707031 79.207031 L 70.707031 76.757812 L 73.152344 76.757812 Z M 79.265625 79.207031 L 75.597656 79.207031 L 75.597656 76.757812 L 79.265625 76.757812 Z M 79.265625 79.207031 " fill-opacity="1" fill-rule="nonzero"/></g><path fill="#ffffff" d="M 43.105469 55.261719 C 42.769531 54.960938 42.59375 54.585938 42.578125 54.132812 L 40.132812 54.132812 C 40.148438 55.289062 40.578125 56.261719 41.429688 57.046875 C 42.109375 57.667969 42.898438 58.074219 43.800781 58.269531 L 43.800781 60.859375 L 46.246094 60.859375 L 46.246094 58.269531 C 46.757812 58.210938 47.238281 58.066406 47.695312 57.835938 C 48.152344 57.601562 48.550781 57.292969 48.890625 56.910156 C 49.234375 56.53125 49.496094 56.101562 49.679688 55.621094 C 49.863281 55.144531 49.953125 54.648438 49.953125 54.132812 C 49.953125 53.621094 49.863281 53.125 49.679688 52.648438 C 49.496094 52.167969 49.234375 51.738281 48.890625 51.359375 C 48.550781 50.976562 48.152344 50.667969 47.695312 50.433594 C 47.238281 50.203125 46.757812 50.054688 46.246094 50 L 46.246094 46.453125 C 46.585938 46.570312 46.867188 46.773438 47.089844 47.054688 C 47.3125 47.339844 47.4375 47.660156 47.46875 48.019531 L 49.914062 48.019531 C 49.886719 47.519531 49.78125 47.035156 49.589844 46.570312 C 49.398438 46.109375 49.136719 45.6875 48.804688 45.3125 C 48.46875 44.9375 48.082031 44.628906 47.644531 44.382812 C 47.207031 44.136719 46.742188 43.972656 46.246094 43.886719 L 46.246094 41.292969 L 43.800781 41.292969 L 43.800781 43.886719 C 42.902344 44.082031 42.117188 44.488281 41.441406 45.109375 C 41.234375 45.292969 41.050781 45.496094 40.890625 45.714844 C 40.726562 45.9375 40.589844 46.175781 40.476562 46.425781 C 40.367188 46.675781 40.28125 46.9375 40.222656 47.203125 C 40.164062 47.472656 40.136719 47.746094 40.136719 48.019531 C 40.136719 48.292969 40.164062 48.566406 40.222656 48.835938 C 40.28125 49.105469 40.367188 49.363281 40.476562 49.613281 C 40.589844 49.867188 40.726562 50.101562 40.890625 50.324219 C 41.050781 50.546875 41.234375 50.746094 41.441406 50.929688 C 42.121094 51.550781 42.910156 51.960938 43.8125 52.152344 L 43.8125 55.699219 C 43.550781 55.59375 43.316406 55.449219 43.105469 55.261719 Z M 46.246094 52.570312 C 46.605469 52.660156 46.898438 52.851562 47.125 53.140625 C 47.351562 53.433594 47.464844 53.765625 47.464844 54.132812 C 47.464844 54.503906 47.351562 54.835938 47.125 55.128906 C 46.898438 55.417969 46.605469 55.609375 46.246094 55.699219 Z M 43.105469 49.144531 C 42.769531 48.84375 42.59375 48.46875 42.578125 48.019531 C 42.59375 47.566406 42.773438 47.191406 43.117188 46.894531 C 43.316406 46.707031 43.546875 46.5625 43.800781 46.453125 L 43.800781 49.585938 C 43.542969 49.476562 43.3125 49.332031 43.105469 49.144531 Z M 43.105469 49.144531 " fill-opacity="1" fill-rule="nonzero"/><path fill="#ffffff" d="M 45.023438 65.753906 C 45.988281 65.753906 46.941406 65.660156 47.886719 65.472656 C 48.832031 65.28125 49.75 65.003906 50.640625 64.636719 C 51.53125 64.265625 52.375 63.816406 53.175781 63.28125 C 53.976562 62.746094 54.71875 62.136719 55.402344 61.453125 C 56.082031 60.773438 56.691406 60.03125 57.226562 59.230469 C 57.761719 58.429688 58.214844 57.582031 58.582031 56.695312 C 58.949219 55.804688 59.230469 54.886719 59.417969 53.941406 C 59.605469 52.996094 59.699219 52.039062 59.699219 51.078125 C 59.699219 50.113281 59.605469 49.160156 59.417969 48.214844 C 59.230469 47.269531 58.949219 46.351562 58.582031 45.460938 C 58.214844 44.570312 57.761719 43.726562 57.226562 42.925781 C 56.691406 42.121094 56.082031 41.382812 55.402344 40.699219 C 54.71875 40.019531 53.976562 39.410156 53.175781 38.875 C 52.375 38.339844 51.53125 37.886719 50.640625 37.519531 C 49.75 37.148438 48.832031 36.871094 47.886719 36.683594 C 46.941406 36.496094 45.988281 36.402344 45.023438 36.402344 C 44.058594 36.402344 43.105469 36.496094 42.160156 36.683594 C 41.214844 36.871094 40.296875 37.148438 39.40625 37.519531 C 38.515625 37.886719 37.671875 38.339844 36.871094 38.875 C 36.070312 39.410156 35.328125 40.019531 34.644531 40.699219 C 33.964844 41.382812 33.355469 42.121094 32.820312 42.925781 C 32.285156 43.726562 31.832031 44.570312 31.464844 45.460938 C 31.097656 46.351562 30.816406 47.269531 30.628906 48.214844 C 30.441406 49.160156 30.347656 50.113281 30.347656 51.078125 C 30.347656 52.039062 30.441406 52.996094 30.628906 53.941406 C 30.816406 54.886719 31.097656 55.804688 31.464844 56.695312 C 31.832031 57.582031 32.285156 58.429688 32.820312 59.230469 C 33.355469 60.03125 33.964844 60.773438 34.644531 61.453125 C 35.328125 62.136719 36.070312 62.746094 36.871094 63.28125 C 37.671875 63.816406 38.515625 64.265625 39.40625 64.636719 C 40.296875 65.003906 41.214844 65.28125 42.160156 65.472656 C 43.105469 65.660156 44.058594 65.753906 45.023438 65.753906 Z M 45.023438 38.847656 C 45.828125 38.847656 46.621094 38.925781 47.410156 39.082031 C 48.195312 39.238281 48.960938 39.472656 49.703125 39.777344 C 50.445312 40.085938 51.148438 40.460938 51.816406 40.910156 C 52.484375 41.355469 53.101562 41.863281 53.671875 42.429688 C 54.238281 42.996094 54.746094 43.617188 55.191406 44.28125 C 55.636719 44.949219 56.015625 45.65625 56.324219 46.398438 C 56.628906 47.140625 56.863281 47.902344 57.019531 48.691406 C 57.175781 49.480469 57.253906 50.273438 57.253906 51.078125 C 57.253906 51.878906 57.175781 52.675781 57.019531 53.464844 C 56.863281 54.25 56.628906 55.015625 56.324219 55.757812 C 56.015625 56.5 55.636719 57.203125 55.191406 57.871094 C 54.746094 58.539062 54.238281 59.15625 53.671875 59.726562 C 53.101562 60.292969 52.484375 60.800781 51.816406 61.246094 C 51.148438 61.691406 50.445312 62.070312 49.703125 62.375 C 48.960938 62.683594 48.195312 62.914062 47.410156 63.070312 C 46.621094 63.230469 45.828125 63.308594 45.023438 63.308594 C 44.21875 63.308594 43.425781 63.230469 42.636719 63.070312 C 41.851562 62.914062 41.085938 62.683594 40.34375 62.375 C 39.601562 62.070312 38.898438 61.691406 38.230469 61.246094 C 37.5625 60.800781 36.945312 60.292969 36.375 59.726562 C 35.808594 59.15625 35.300781 58.539062 34.855469 57.871094 C 34.410156 57.203125 34.03125 56.5 33.726562 55.757812 C 33.417969 55.015625 33.1875 54.25 33.027344 53.464844 C 32.871094 52.675781 32.792969 51.878906 32.792969 51.078125 C 32.792969 50.273438 32.871094 49.480469 33.027344 48.691406 C 33.1875 47.902344 33.417969 47.140625 33.726562 46.398438 C 34.03125 45.65625 34.410156 44.949219 34.855469 44.28125 C 35.300781 43.617188 35.808594 42.996094 36.375 42.429688 C 36.945312 41.863281 37.5625 41.355469 38.230469 40.910156 C 38.898438 40.460938 39.601562 40.085938 40.34375 39.777344 C 41.085938 39.472656 41.851562 39.238281 42.636719 39.082031 C 43.425781 38.925781 44.21875 38.847656 45.023438 38.847656 Z M 45.023438 38.847656 " fill-opacity="1" fill-rule="nonzero"/></svg>