<svg xmlns="http://www.w3.org/2000/svg" xmlns:xlink="http://www.w3.org/1999/xlink" width="120" zoomAndPan="magnify" viewBox="0 0 90 89.999999" height="120" preserveAspectRatio="xMidYMid meet" version="1.0"><defs><clipPath id="id1"><path d="M 6.710938 11.210938 L 83 11.210938 L 83 64 L 6.710938 64 Z M 6.710938 11.210938 " clip-rule="nonzero"/></clipPath><clipPath id="id2"><path d="M 60 68 L 71 68 L 71 78.710938 L 60 78.710938 Z M 60 68 " clip-rule="nonzero"/></clipPath><clipPath id="id3"><path d="M 31 68 L 42 68 L 42 78.710938 L 31 78.710938 Z M 31 68 " clip-rule="nonzero"/></clipPath></defs><path fill="#ffffff" d="M 49.449219 50.84375 C 49.507812 50.84375 49.566406 50.902344 49.625 50.902344 C 49.863281 50.902344 50.101562 50.722656 50.222656 50.488281 L 51.707031 46.328125 C 51.824219 46.03125 51.648438 45.671875 51.351562 45.554688 C 51.054688 45.4375 50.695312 45.613281 50.578125 45.910156 L 49.09375 50.070312 C 48.972656 50.425781 49.152344 50.722656 49.449219 50.84375 Z M 49.449219 50.84375 " fill-opacity="1" fill-rule="nonzero"/><path fill="#ffffff" d="M 48.023438 41.871094 L 44.101562 43.710938 C 43.804688 43.832031 43.683594 44.246094 43.804688 44.542969 C 43.921875 44.78125 44.101562 44.902344 44.335938 44.902344 C 44.398438 44.902344 44.515625 44.902344 44.574219 44.839844 L 48.496094 43 C 48.792969 42.882812 48.914062 42.464844 48.792969 42.167969 C 48.675781 41.871094 48.320312 41.75 48.023438 41.871094 Z M 48.023438 41.871094 " fill-opacity="1" fill-rule="nonzero"/><path fill="#ffffff" d="M 49.390625 37.949219 C 49.507812 37.652344 49.328125 37.296875 49.03125 37.175781 L 44.933594 35.691406 C 44.636719 35.574219 44.277344 35.75 44.160156 36.046875 C 44.039062 36.34375 44.21875 36.703125 44.515625 36.820312 L 48.617188 38.304688 C 48.675781 38.304688 48.734375 38.363281 48.855469 38.363281 C 49.09375 38.363281 49.269531 38.1875 49.390625 37.949219 Z M 49.390625 37.949219 " fill-opacity="1" fill-rule="nonzero"/><path fill="#ffffff" d="M 52.480469 35.453125 C 52.539062 35.453125 52.65625 35.453125 52.71875 35.394531 C 53.015625 35.273438 53.132812 34.859375 53.015625 34.5625 L 51.171875 30.582031 C 51.054688 30.285156 50.636719 30.164062 50.339844 30.285156 C 50.101562 30.402344 49.984375 30.820312 50.101562 31.117188 L 51.945312 35.097656 C 52.0625 35.273438 52.242188 35.453125 52.480469 35.453125 Z M 52.480469 35.453125 " fill-opacity="1" fill-rule="nonzero"/><path fill="#ffffff" d="M 57.171875 35.988281 C 57.410156 35.988281 57.648438 35.808594 57.769531 35.574219 L 59.253906 31.414062 C 59.371094 31.117188 59.195312 30.757812 58.898438 30.640625 C 58.601562 30.523438 58.242188 30.699219 58.125 30.996094 L 56.640625 35.15625 C 56.519531 35.453125 56.699219 35.808594 56.996094 35.929688 C 56.996094 35.988281 57.054688 35.988281 57.171875 35.988281 Z M 57.171875 35.988281 " fill-opacity="1" fill-rule="nonzero"/><path fill="#ffffff" d="M 60.027344 39.730469 C 60.085938 39.730469 60.203125 39.730469 60.265625 39.671875 L 64.1875 37.832031 C 64.484375 37.710938 64.601562 37.296875 64.484375 37 C 64.363281 36.703125 63.949219 36.582031 63.652344 36.703125 L 59.730469 38.542969 C 59.433594 38.664062 59.3125 39.078125 59.433594 39.375 C 59.609375 39.554688 59.847656 39.730469 60.027344 39.730469 Z M 60.027344 39.730469 " fill-opacity="1" fill-rule="nonzero"/><g clip-path="url(#id1)"><path fill="#ffffff" d="M 76.546875 22.855469 L 25.023438 22.855469 C 23.242188 14.480469 18.367188 13.945312 17.953125 13.882812 L 14.207031 13.882812 C 13.613281 12.457031 12.246094 11.210938 10.582031 11.210938 C 8.445312 11.210938 6.722656 12.933594 6.722656 15.074219 C 6.722656 17.210938 8.445312 18.996094 10.582031 18.996094 C 12.246094 18.996094 13.613281 17.6875 14.207031 16.261719 L 17.714844 16.261719 C 17.832031 16.261719 21.101562 17.269531 22.351562 24.105469 C 23.953125 33.195312 28.113281 56.011719 28.113281 56.011719 C 28.113281 58.566406 29.660156 63.203125 35.363281 63.203125 L 57.351562 63.203125 L 56.460938 60.886719 L 35.304688 60.886719 C 32.867188 60.886719 31.796875 59.101562 31.324219 57.855469 C 35.1875 57.617188 45.765625 56.902344 55.09375 56.25 L 54.261719 53.339844 C 44.753906 53.992188 34.234375 54.707031 30.847656 54.941406 C 30.074219 51.082031 27.164062 34.679688 25.558594 25.769531 L 76.128906 25.769531 C 78.449219 25.769531 80.113281 27.667969 79.816406 29.988281 L 77.675781 47.457031 C 77.675781 47.515625 77.617188 47.871094 77.378906 48.347656 L 79.992188 49.65625 C 80.46875 48.644531 80.585938 47.929688 80.585938 47.8125 L 82.785156 29.867188 C 83.203125 26.007812 80.46875 22.855469 76.546875 22.855469 Z M 76.546875 22.855469 " fill-opacity="1" fill-rule="nonzero"/></g><path fill="#ffffff" d="M 70.722656 54.585938 L 75.714844 52.625 C 76.191406 52.449219 76.488281 52.03125 76.488281 51.554688 C 76.488281 51.082031 76.25 50.605469 75.832031 50.367188 L 54.796875 39.730469 C 54.378906 39.492188 53.847656 39.554688 53.429688 39.910156 C 53.074219 40.207031 52.894531 40.742188 53.074219 41.21875 L 60.203125 64.210938 C 60.324219 64.6875 60.796875 65.042969 61.273438 65.105469 C 61.75 65.164062 62.226562 64.867188 62.460938 64.449219 L 65.316406 58.984375 L 71.4375 67.125 C 71.613281 67.363281 71.910156 67.539062 72.269531 67.597656 C 72.328125 67.597656 72.386719 67.597656 72.445312 67.597656 C 72.683594 67.597656 72.980469 67.539062 73.21875 67.363281 L 76.960938 64.449219 C 77.199219 64.273438 77.378906 63.976562 77.4375 63.617188 C 77.496094 63.261719 77.378906 62.964844 77.199219 62.667969 Z M 72.625 64.628906 L 66.085938 55.953125 C 65.851562 55.65625 65.492188 55.476562 65.136719 55.476562 C 65.078125 55.476562 65.078125 55.476562 65.019531 55.476562 C 64.601562 55.539062 64.246094 55.773438 64.007812 56.132812 L 61.628906 60.707031 L 56.222656 43.296875 L 72.207031 51.378906 L 68.285156 52.921875 C 67.929688 53.042969 67.632812 53.398438 67.574219 53.753906 C 67.453125 54.109375 67.574219 54.527344 67.8125 54.824219 L 74.46875 63.261719 Z M 72.625 64.628906 " fill-opacity="1" fill-rule="nonzero"/><g clip-path="url(#id2)"><path fill="#ffffff" d="M 65.671875 68.371094 C 62.878906 68.371094 60.5625 70.6875 60.5625 73.542969 C 60.5625 76.394531 62.878906 78.710938 65.671875 78.710938 C 68.464844 78.710938 70.78125 76.394531 70.78125 73.542969 C 70.78125 70.6875 68.464844 68.371094 65.671875 68.371094 Z M 65.671875 76.214844 C 64.1875 76.214844 62.996094 75.027344 62.996094 73.542969 C 62.996094 72.054688 64.1875 70.867188 65.671875 70.867188 C 67.15625 70.867188 68.347656 72.054688 68.347656 73.542969 C 68.347656 74.96875 67.15625 76.214844 65.671875 76.214844 Z M 65.671875 76.214844 " fill-opacity="1" fill-rule="nonzero"/></g><g clip-path="url(#id3)"><path fill="#ffffff" d="M 36.253906 68.371094 C 33.460938 68.371094 31.144531 70.6875 31.144531 73.542969 C 31.144531 76.394531 33.460938 78.710938 36.253906 78.710938 C 39.046875 78.710938 41.367188 76.394531 41.367188 73.542969 C 41.367188 70.6875 39.046875 68.371094 36.253906 68.371094 Z M 36.253906 76.214844 C 34.769531 76.214844 33.582031 75.027344 33.582031 73.542969 C 33.582031 72.054688 34.769531 70.867188 36.253906 70.867188 C 37.742188 70.867188 38.929688 72.054688 38.929688 73.542969 C 38.929688 74.96875 37.742188 76.214844 36.253906 76.214844 Z M 36.253906 76.214844 " fill-opacity="1" fill-rule="nonzero"/></g></svg>