<svg xmlns="http://www.w3.org/2000/svg" xmlns:xlink="http://www.w3.org/1999/xlink" width="120" zoomAndPan="magnify" viewBox="0 0 90 89.999999" height="120" preserveAspectRatio="xMidYMid meet" version="1.0"><defs><clipPath id="id1"><path d="M 8.171875 48 L 24 48 L 24 77 L 8.171875 77 Z M 8.171875 48 " clip-rule="nonzero"/></clipPath></defs><path fill="#ffffff" d="M 56.902344 68.074219 L 39.332031 68.074219 C 38.652344 68.074219 38.097656 67.519531 38.097656 66.835938 C 38.097656 66.152344 38.652344 65.589844 39.332031 65.589844 L 56.902344 65.589844 C 58.707031 65.589844 60.167969 64.132812 60.167969 62.324219 C 60.167969 60.511719 58.707031 59.050781 56.902344 59.050781 L 44.289062 59.050781 C 44.007812 59.050781 43.734375 58.953125 43.511719 58.773438 L 39.984375 55.949219 C 36.417969 53.078125 31.558594 52.421875 27.355469 54.238281 L 22.703125 56.238281 C 22.074219 56.503906 21.34375 56.210938 21.078125 55.585938 C 20.804688 54.957031 21.097656 54.222656 21.726562 53.957031 L 26.378906 51.953125 C 31.417969 49.78125 37.246094 50.574219 41.535156 54.011719 L 44.722656 56.5625 L 56.902344 56.5625 C 60.078125 56.5625 62.648438 59.140625 62.648438 62.316406 C 62.648438 65.492188 60.078125 68.074219 56.90625 68.074219 C 56.90625 68.074219 56.90625 68.074219 56.902344 68.074219 " fill-opacity="1" fill-rule="nonzero"/><path fill="#ffffff" d="M 46.886719 81 C 45.558594 81 44.246094 80.789062 42.996094 80.367188 L 22.046875 73.367188 C 21.394531 73.15625 21.050781 72.449219 21.269531 71.796875 C 21.484375 71.148438 22.1875 70.804688 22.832031 71.015625 L 43.773438 78.015625 C 46.496094 78.902344 49.46875 78.578125 51.933594 77.113281 L 76.375 62.417969 C 77.925781 61.492188 78.429688 59.476562 77.496094 57.929688 C 76.574219 56.378906 74.5625 55.871094 73.019531 56.804688 C 73.019531 56.804688 73.019531 56.804688 73.015625 56.804688 L 62.6875 63.019531 C 62.097656 63.371094 61.335938 63.179688 60.984375 62.589844 C 60.625 62.007812 60.816406 61.242188 61.402344 60.890625 L 71.738281 54.675781 C 74.460938 53.042969 77.988281 53.921875 79.617188 56.644531 C 81.25 59.375 80.375 62.910156 77.652344 64.546875 L 53.207031 79.242188 C 51.292969 80.394531 49.113281 81 46.886719 81 " fill-opacity="1" fill-rule="nonzero"/><g clip-path="url(#id1)"><path fill="#ffffff" d="M 22.210938 76.035156 L 9.824219 76.035156 C 9.140625 76.035156 8.585938 75.476562 8.585938 74.792969 C 8.585938 74.109375 9.140625 73.554688 9.824219 73.554688 L 20.976562 73.554688 L 20.976562 51.207031 L 9.824219 51.207031 C 9.140625 51.207031 8.585938 50.652344 8.585938 49.964844 C 8.585938 49.277344 9.140625 48.726562 9.824219 48.726562 L 22.210938 48.726562 C 22.894531 48.726562 23.457031 49.277344 23.457031 49.960938 C 23.457031 49.964844 23.457031 49.964844 23.457031 49.964844 L 23.457031 74.792969 C 23.457031 75.476562 22.902344 76.035156 22.210938 76.035156 " fill-opacity="1" fill-rule="nonzero"/></g><path fill="#ffffff" d="M 12.304688 53.6875 C 13.671875 53.6875 14.78125 54.800781 14.78125 56.171875 C 14.78125 57.542969 13.671875 58.652344 12.304688 58.652344 C 10.933594 58.652344 9.824219 57.542969 9.824219 56.171875 C 9.824219 54.800781 10.933594 53.6875 12.304688 53.6875 " fill-opacity="1" fill-rule="nonzero"/><path fill="#ffffff" d="M 51.945312 11.480469 C 41.6875 11.480469 33.363281 19.820312 33.363281 30.105469 C 33.363281 40.386719 41.6875 48.726562 51.945312 48.726562 C 62.207031 48.726562 70.527344 40.386719 70.527344 30.105469 C 70.519531 19.820312 62.207031 11.492188 51.945312 11.480469 Z M 51.945312 51.207031 C 40.316406 51.207031 30.886719 41.757812 30.886719 30.105469 C 30.886719 18.449219 40.316406 9 51.945312 9 C 63.578125 9 73.007812 18.449219 73.007812 30.105469 C 72.996094 41.753906 63.574219 51.195312 51.945312 51.207031 " fill-opacity="1" fill-rule="nonzero"/><path fill="#ffffff" d="M 49.878906 38.792969 L 54.011719 38.792969 L 54.011719 33.410156 C 54.011719 32.726562 54.566406 32.171875 55.25 32.171875 L 60.621094 32.171875 L 60.621094 28.035156 L 55.25 28.035156 C 54.566406 28.035156 54.011719 27.480469 54.011719 26.796875 C 54.011719 26.796875 54.011719 26.796875 54.011719 26.789062 L 54.011719 21.414062 L 49.878906 21.414062 L 49.878906 26.789062 C 49.878906 27.480469 49.328125 28.035156 48.648438 28.035156 L 43.277344 28.035156 L 43.277344 32.171875 L 48.648438 32.171875 C 49.328125 32.171875 49.878906 32.726562 49.878906 33.410156 Z M 55.25 41.273438 L 48.648438 41.273438 C 47.957031 41.273438 47.402344 40.722656 47.402344 40.035156 L 47.402344 34.65625 L 42.039062 34.65625 C 41.355469 34.65625 40.792969 34.101562 40.792969 33.417969 L 40.792969 26.789062 C 40.792969 26.105469 41.347656 25.550781 42.03125 25.550781 C 42.03125 25.550781 42.039062 25.550781 42.039062 25.550781 L 47.402344 25.550781 L 47.402344 20.171875 C 47.402344 19.488281 47.957031 18.933594 48.640625 18.933594 C 48.640625 18.933594 48.640625 18.933594 48.648438 18.933594 L 55.25 18.933594 C 55.929688 18.933594 56.492188 19.484375 56.492188 20.171875 L 56.492188 25.550781 L 61.855469 25.550781 C 62.539062 25.550781 63.09375 26.105469 63.09375 26.789062 L 63.09375 33.410156 C 63.09375 34.101562 62.539062 34.65625 61.855469 34.65625 L 56.492188 34.65625 L 56.492188 40.035156 C 56.492188 40.71875 55.9375 41.273438 55.253906 41.273438 C 55.253906 41.273438 55.253906 41.273438 55.25 41.273438 " fill-opacity="1" fill-rule="nonzero"/></svg>