<svg xmlns="http://www.w3.org/2000/svg" xmlns:xlink="http://www.w3.org/1999/xlink" width="120" zoomAndPan="magnify" viewBox="0 0 90 89.999999" height="120" preserveAspectRatio="xMidYMid meet" version="1.0"><defs><clipPath id="id1"><path d="M 7.914062 7.914062 L 74 7.914062 L 74 74 L 7.914062 74 Z M 7.914062 7.914062 " clip-rule="nonzero"/></clipPath><clipPath id="id2"><path d="M 26.476562 26 L 82.164062 26 L 82.164062 82.03125 L 26.476562 82.03125 Z M 26.476562 26 " clip-rule="nonzero"/></clipPath></defs><path fill="#ffffff" d="M 57.246094 46.15625 C 57.890625 46.328125 58.539062 45.9375 58.703125 45.292969 C 59.105469 43.765625 59.308594 42.167969 59.308594 40.574219 C 59.308594 30.203125 50.871094 21.761719 40.488281 21.761719 C 30.113281 21.761719 21.675781 30.203125 21.675781 40.574219 C 21.675781 50.941406 30.113281 59.386719 40.488281 59.386719 C 42.144531 59.386719 43.785156 59.167969 45.367188 58.746094 C 46.007812 58.582031 46.390625 57.917969 46.210938 57.277344 C 46.046875 56.636719 45.386719 56.253906 44.742188 56.433594 C 43.363281 56.796875 41.925781 56.992188 40.484375 56.992188 C 31.433594 56.992188 24.070312 49.625 24.070312 40.574219 C 24.070312 31.523438 31.433594 24.152344 40.484375 24.152344 C 49.53125 24.152344 56.902344 31.523438 56.902344 40.574219 C 56.902344 41.972656 56.726562 43.363281 56.382812 44.695312 C 56.222656 45.332031 56.605469 45.992188 57.246094 46.15625 " fill-opacity="1" fill-rule="nonzero"/><g clip-path="url(#id1)"><path fill="#ffffff" d="M 50.105469 62.359375 C 48.914062 62.886719 47.667969 63.320312 46.414062 63.636719 L 45.511719 63.867188 L 45.511719 70.75 L 35.472656 70.75 L 35.472656 63.867188 L 34.570312 63.636719 C 32.40625 63.085938 30.324219 62.214844 28.375 61.066406 L 27.574219 60.59375 L 22.699219 65.464844 L 15.597656 58.363281 L 20.46875 53.492188 L 20 52.6875 C 18.847656 50.746094 17.976562 48.660156 17.425781 46.492188 L 17.195312 45.589844 L 10.3125 45.589844 L 10.3125 35.558594 L 17.195312 35.558594 L 17.425781 34.652344 C 17.976562 32.484375 18.847656 30.402344 20 28.453125 L 20.46875 27.652344 L 15.597656 22.78125 L 22.699219 15.675781 L 27.574219 20.554688 L 28.375 20.078125 C 30.324219 18.933594 32.40625 18.0625 34.570312 17.507812 L 35.472656 17.277344 L 35.472656 10.390625 L 45.519531 10.390625 L 45.519531 17.273438 L 46.421875 17.503906 C 48.582031 18.050781 50.671875 18.925781 52.617188 20.074219 L 53.421875 20.546875 L 58.285156 15.667969 L 65.394531 22.777344 L 60.523438 27.648438 L 60.988281 28.445312 C 62.144531 30.390625 63.011719 32.480469 63.558594 34.648438 L 63.796875 35.550781 L 70.671875 35.550781 L 70.671875 45.589844 L 63.796875 45.589844 L 63.558594 46.492188 C 63.257812 47.667969 62.867188 48.820312 62.386719 49.933594 C 62.128906 50.546875 62.414062 51.246094 63.019531 51.507812 C 63.625 51.773438 64.332031 51.484375 64.59375 50.882812 C 64.996094 49.945312 65.347656 48.972656 65.636719 47.988281 L 73.074219 47.988281 L 73.074219 33.15625 L 65.636719 33.15625 C 65.117188 31.390625 64.402344 29.675781 63.507812 28.050781 L 68.773438 22.78125 L 58.28125 12.292969 L 53.019531 17.554688 C 51.390625 16.671875 49.671875 15.953125 47.90625 15.433594 L 47.90625 7.996094 L 33.078125 7.996094 L 33.078125 15.433594 C 31.3125 15.953125 29.59375 16.664062 27.964844 17.554688 L 22.699219 12.292969 L 12.210938 22.78125 L 17.476562 28.050781 C 16.582031 29.675781 15.867188 31.390625 15.347656 33.15625 L 7.914062 33.15625 L 7.914062 47.996094 L 15.347656 47.996094 C 15.867188 49.761719 16.582031 51.476562 17.476562 53.105469 L 12.210938 58.371094 L 22.699219 68.859375 L 27.964844 63.597656 C 29.59375 64.480469 31.3125 65.207031 33.078125 65.722656 L 33.078125 73.164062 L 47.910156 73.164062 L 47.910156 65.722656 C 48.992188 65.40625 50.054688 65.007812 51.074219 64.554688 C 51.6875 64.285156 51.953125 63.578125 51.6875 62.972656 C 51.410156 62.367188 50.707031 62.097656 50.105469 62.359375 " fill-opacity="1" fill-rule="nonzero"/></g><g clip-path="url(#id2)"><path fill="#ffffff" d="M 78.792969 78.679688 C 78.167969 79.308594 77.332031 79.65625 76.433594 79.65625 C 75.539062 79.65625 74.699219 79.3125 74.082031 78.679688 L 46.527344 51.128906 C 46.289062 50.894531 45.988281 50.777344 45.675781 50.777344 C 45.511719 50.777344 45.339844 50.804688 45.1875 50.882812 C 40.898438 52.792969 35.808594 51.871094 32.511719 48.574219 L 32.367188 48.4375 C 30.199219 46.269531 29.046875 43.363281 29.066406 40.347656 L 31.800781 43.078125 C 34.9375 46.230469 40.0625 46.222656 43.199219 43.078125 C 44.714844 41.5625 45.558594 39.546875 45.558594 37.382812 C 45.558594 35.226562 44.714844 33.199219 43.199219 31.6875 L 40.46875 28.957031 C 43.460938 28.925781 46.390625 30.09375 48.550781 32.253906 L 48.695312 32.398438 C 51.992188 35.703125 52.914062 40.792969 50.996094 45.082031 C 50.796875 45.539062 50.890625 46.066406 51.246094 46.414062 L 78.792969 73.960938 C 79.414062 74.582031 79.769531 75.425781 79.769531 76.3125 C 79.769531 77.210938 79.421875 78.046875 78.792969 78.679688 Z M 80.496094 72.265625 L 53.5 45.28125 C 55.386719 40.265625 54.1875 34.496094 50.390625 30.699219 L 50.246094 30.554688 C 46.949219 27.257812 42.214844 25.875 37.609375 26.863281 C 37.171875 26.960938 36.832031 27.277344 36.710938 27.691406 C 36.585938 28.113281 36.707031 28.578125 37.015625 28.878906 L 41.503906 33.367188 C 42.566406 34.429688 43.160156 35.855469 43.160156 37.371094 C 43.160156 38.886719 42.578125 40.308594 41.503906 41.371094 C 39.300781 43.578125 35.703125 43.585938 33.496094 41.371094 L 29.007812 36.882812 C 28.691406 36.574219 28.234375 36.460938 27.820312 36.578125 C 27.398438 36.703125 27.074219 37.054688 26.988281 37.476562 C 26 42.082031 27.371094 46.808594 30.679688 50.113281 L 30.824219 50.257812 C 34.621094 54.054688 40.390625 55.261719 45.40625 53.367188 L 72.394531 80.363281 C 73.46875 81.4375 74.910156 82.03125 76.441406 82.03125 C 77.976562 82.03125 79.414062 81.4375 80.496094 80.363281 C 81.574219 79.28125 82.164062 77.84375 82.164062 76.308594 C 82.164062 74.773438 81.574219 73.347656 80.496094 72.265625 " fill-opacity="1" fill-rule="nonzero"/></g></svg>