<svg xmlns="http://www.w3.org/2000/svg" xmlns:xlink="http://www.w3.org/1999/xlink" width="120" zoomAndPan="magnify" viewBox="0 0 90 89.999999" height="120" preserveAspectRatio="xMidYMid meet" version="1.0"><defs><clipPath id="id1"><path d="M 31 8.261719 L 51 8.261719 L 51 29 L 31 29 Z M 31 8.261719 " clip-rule="nonzero"/></clipPath><clipPath id="id2"><path d="M 65 66 L 82.65625 66 L 82.65625 81.761719 L 65 81.761719 Z M 65 66 " clip-rule="nonzero"/></clipPath><clipPath id="id3"><path d="M 8 56 L 35 56 L 35 81.761719 L 8 81.761719 Z M 8 56 " clip-rule="nonzero"/></clipPath></defs><path fill="#ffffff" d="M 15.578125 52.339844 L 17.890625 51.773438 C 17.335938 49.53125 17.058594 47.261719 17.058594 44.953125 C 17.054688 43.132812 17.226562 41.328125 17.574219 39.539062 C 17.921875 37.75 18.4375 36.011719 19.121094 34.320312 C 19.804688 32.632812 20.644531 31.023438 21.640625 29.496094 C 22.636719 27.96875 23.769531 26.550781 25.042969 25.242188 L 23.332031 23.597656 C 22.429688 24.53125 21.589844 25.519531 20.8125 26.558594 C 20.035156 27.597656 19.328125 28.679688 18.6875 29.808594 C 18.046875 30.9375 17.480469 32.097656 16.988281 33.296875 C 16.496094 34.496094 16.082031 35.722656 15.742188 36.972656 C 15.40625 38.226562 15.148438 39.492188 14.972656 40.777344 C 14.792969 42.058594 14.699219 43.351562 14.683594 44.644531 C 14.671875 45.941406 14.738281 47.234375 14.886719 48.519531 C 15.039062 49.808594 15.269531 51.078125 15.578125 52.339844 Z M 15.578125 52.339844 " fill-opacity="1" fill-rule="nonzero"/><path fill="#ffffff" d="M 38.726562 72.53125 L 38.160156 74.832031 C 40.136719 75.316406 42.144531 75.601562 44.183594 75.691406 C 46.21875 75.78125 48.242188 75.671875 50.257812 75.363281 C 52.269531 75.054688 54.234375 74.554688 56.148438 73.859375 C 58.066406 73.164062 59.894531 72.292969 61.636719 71.238281 L 60.398438 69.21875 C 58.789062 70.191406 57.101562 70.996094 55.332031 71.636719 C 53.566406 72.277344 51.753906 72.742188 49.894531 73.027344 C 48.035156 73.308594 46.164062 73.410156 44.285156 73.328125 C 42.40625 73.246094 40.554688 72.980469 38.726562 72.53125 Z M 38.726562 72.53125 " fill-opacity="1" fill-rule="nonzero"/><path fill="#ffffff" d="M 75.226562 53.59375 C 75.605469 52.296875 75.894531 50.980469 76.101562 49.648438 C 76.308594 48.3125 76.425781 46.96875 76.453125 45.621094 C 76.480469 44.269531 76.421875 42.921875 76.273438 41.582031 C 76.125 40.238281 75.886719 38.914062 75.5625 37.601562 C 75.238281 36.289062 74.832031 35.007812 74.335938 33.75 C 73.84375 32.492188 73.269531 31.269531 72.617188 30.085938 C 71.960938 28.90625 71.230469 27.769531 70.425781 26.683594 C 69.625 25.597656 68.75 24.566406 67.8125 23.59375 L 66.101562 25.238281 C 66.96875 26.132812 67.773438 27.085938 68.515625 28.089844 C 69.257812 29.09375 69.929688 30.140625 70.535156 31.230469 C 71.140625 32.324219 71.667969 33.449219 72.125 34.609375 C 72.582031 35.773438 72.957031 36.957031 73.257812 38.167969 C 73.554688 39.378906 73.773438 40.605469 73.910156 41.84375 C 74.050781 43.082031 74.105469 44.324219 74.078125 45.570312 C 74.050781 46.816406 73.945312 48.054688 73.753906 49.289062 C 73.5625 50.519531 73.292969 51.734375 72.945312 52.933594 Z M 75.226562 53.59375 " fill-opacity="1" fill-rule="nonzero"/><path fill="#ffffff" d="M 40.820312 28.382812 C 40.820312 28.777344 40.746094 29.152344 40.59375 29.515625 C 40.441406 29.878906 40.226562 30.199219 39.949219 30.476562 C 39.671875 30.753906 39.351562 30.96875 38.984375 31.117188 C 38.621094 31.265625 38.242188 31.34375 37.847656 31.34375 C 37.457031 31.34375 37.078125 31.265625 36.714844 31.117188 C 36.347656 30.96875 36.027344 30.753906 35.75 30.476562 C 35.472656 30.199219 35.257812 29.878906 35.105469 29.515625 C 34.953125 29.152344 34.878906 28.777344 34.878906 28.382812 C 34.878906 27.992188 34.953125 27.613281 35.105469 27.25 C 35.257812 26.890625 35.472656 26.570312 35.75 26.292969 C 36.027344 26.015625 36.347656 25.800781 36.714844 25.648438 C 37.078125 25.5 37.457031 25.425781 37.847656 25.425781 C 38.242188 25.425781 38.621094 25.5 38.984375 25.648438 C 39.351562 25.800781 39.671875 26.015625 39.949219 26.292969 C 40.226562 26.570312 40.441406 26.890625 40.59375 27.25 C 40.746094 27.613281 40.820312 27.992188 40.820312 28.382812 Z M 40.820312 28.382812 " fill-opacity="1" fill-rule="nonzero"/><path fill="#ffffff" d="M 59.828125 28.382812 C 59.828125 28.777344 59.753906 29.152344 59.601562 29.515625 C 59.449219 29.878906 59.238281 30.199219 58.957031 30.476562 C 58.679688 30.753906 58.359375 30.96875 57.996094 31.117188 C 57.628906 31.265625 57.25 31.34375 56.859375 31.34375 C 56.464844 31.34375 56.085938 31.265625 55.722656 31.117188 C 55.359375 30.96875 55.035156 30.753906 54.757812 30.476562 C 54.480469 30.199219 54.265625 29.878906 54.113281 29.515625 C 53.964844 29.152344 53.886719 28.777344 53.886719 28.382812 C 53.886719 27.992188 53.964844 27.613281 54.113281 27.25 C 54.265625 26.890625 54.480469 26.570312 54.757812 26.292969 C 55.035156 26.015625 55.359375 25.800781 55.722656 25.648438 C 56.085938 25.5 56.464844 25.425781 56.859375 25.425781 C 57.25 25.425781 57.628906 25.5 57.996094 25.648438 C 58.359375 25.800781 58.679688 26.015625 58.957031 26.292969 C 59.238281 26.570312 59.449219 26.890625 59.601562 27.25 C 59.753906 27.613281 59.828125 27.992188 59.828125 28.382812 Z M 59.828125 28.382812 " fill-opacity="1" fill-rule="nonzero"/><g clip-path="url(#id1)"><path fill="#ffffff" d="M 31.316406 28.382812 L 33.691406 28.382812 C 33.691406 28.113281 33.71875 27.84375 33.769531 27.574219 C 33.824219 27.308594 33.902344 27.050781 34.007812 26.796875 C 34.113281 26.546875 34.242188 26.308594 34.390625 26.082031 C 34.542969 25.855469 34.714844 25.648438 34.910156 25.453125 C 35.101562 25.261719 35.3125 25.089844 35.539062 24.9375 C 35.765625 24.789062 36.007812 24.660156 36.257812 24.554688 C 36.511719 24.453125 36.769531 24.375 37.039062 24.320312 C 37.304688 24.265625 37.578125 24.242188 37.847656 24.242188 C 38.121094 24.242188 38.394531 24.265625 38.660156 24.320312 C 38.929688 24.375 39.1875 24.453125 39.441406 24.554688 C 39.691406 24.660156 39.933594 24.789062 40.160156 24.9375 C 40.386719 25.089844 40.597656 25.261719 40.789062 25.453125 C 40.984375 25.648438 41.15625 25.855469 41.308594 26.082031 C 41.457031 26.308594 41.585938 26.546875 41.691406 26.796875 C 41.796875 27.050781 41.875 27.308594 41.929688 27.574219 C 41.980469 27.84375 42.007812 28.113281 42.007812 28.382812 L 50.324219 28.382812 L 50.324219 8.261719 L 31.316406 8.261719 Z M 31.316406 28.382812 " fill-opacity="1" fill-rule="nonzero"/></g><g clip-path="url(#id2)"><path fill="#ffffff" d="M 78.835938 66.257812 L 69.332031 66.257812 C 68.859375 66.257812 68.40625 66.347656 67.96875 66.527344 C 67.53125 66.707031 67.144531 66.964844 66.8125 67.296875 C 66.476562 67.632812 66.21875 68.015625 66.039062 68.449219 C 65.859375 68.886719 65.769531 69.335938 65.769531 69.808594 L 65.769531 81.644531 L 82.398438 81.644531 L 82.398438 69.808594 C 82.398438 69.335938 82.308594 68.886719 82.128906 68.449219 C 81.949219 68.015625 81.691406 67.628906 81.355469 67.296875 C 81.023438 66.964844 80.636719 66.707031 80.199219 66.527344 C 79.761719 66.347656 79.308594 66.257812 78.835938 66.257812 Z M 78.835938 66.257812 " fill-opacity="1" fill-rule="nonzero"/></g><path fill="#ffffff" d="M 78.242188 62.117188 C 78.242188 62.386719 78.214844 62.65625 78.164062 62.921875 C 78.109375 63.191406 78.03125 63.449219 77.925781 63.699219 C 77.820312 63.953125 77.691406 64.191406 77.542969 64.417969 C 77.390625 64.644531 77.21875 64.851562 77.023438 65.042969 C 76.832031 65.238281 76.621094 65.410156 76.394531 65.558594 C 76.167969 65.710938 75.925781 65.839844 75.675781 65.941406 C 75.421875 66.046875 75.164062 66.125 74.894531 66.179688 C 74.628906 66.230469 74.355469 66.257812 74.085938 66.257812 C 73.8125 66.257812 73.539062 66.230469 73.273438 66.179688 C 73.003906 66.125 72.746094 66.046875 72.492188 65.941406 C 72.242188 65.839844 72 65.710938 71.773438 65.558594 C 71.546875 65.410156 71.335938 65.238281 71.144531 65.042969 C 70.949219 64.851562 70.777344 64.644531 70.625 64.417969 C 70.476562 64.191406 70.347656 63.953125 70.242188 63.699219 C 70.136719 63.449219 70.058594 63.191406 70.007812 62.921875 C 69.953125 62.65625 69.925781 62.386719 69.925781 62.117188 C 69.925781 61.84375 69.953125 61.574219 70.007812 61.308594 C 70.058594 61.039062 70.136719 60.78125 70.242188 60.53125 C 70.347656 60.277344 70.476562 60.039062 70.625 59.8125 C 70.777344 59.585938 70.949219 59.378906 71.144531 59.1875 C 71.335938 58.992188 71.546875 58.820312 71.773438 58.671875 C 72 58.519531 72.242188 58.390625 72.492188 58.289062 C 72.746094 58.183594 73.003906 58.105469 73.273438 58.050781 C 73.539062 58 73.8125 57.972656 74.085938 57.972656 C 74.355469 57.972656 74.628906 58 74.894531 58.050781 C 75.164062 58.105469 75.421875 58.183594 75.675781 58.289062 C 75.925781 58.390625 76.167969 58.519531 76.394531 58.671875 C 76.621094 58.820312 76.832031 58.992188 77.023438 59.1875 C 77.21875 59.378906 77.390625 59.585938 77.542969 59.8125 C 77.691406 60.039062 77.820312 60.277344 77.925781 60.53125 C 78.03125 60.78125 78.109375 61.039062 78.164062 61.308594 C 78.214844 61.574219 78.242188 61.84375 78.242188 62.117188 Z M 78.242188 62.117188 " fill-opacity="1" fill-rule="nonzero"/><path fill="#ffffff" d="M 49.066406 41.703125 C 48.863281 41.628906 48.699219 41.503906 48.570312 41.332031 C 48.441406 41.15625 48.375 40.960938 48.367188 40.742188 L 48.367188 40.058594 C 48.363281 39.921875 48.335938 39.789062 48.28125 39.660156 C 48.222656 39.535156 48.144531 39.421875 48.046875 39.328125 C 47.945312 39.230469 47.832031 39.160156 47.703125 39.109375 C 47.570312 39.058594 47.4375 39.035156 47.300781 39.035156 L 43.855469 39.035156 C 43.714844 39.035156 43.582031 39.058594 43.453125 39.109375 C 43.324219 39.160156 43.207031 39.230469 43.109375 39.328125 C 43.007812 39.421875 42.929688 39.535156 42.875 39.660156 C 42.816406 39.789062 42.789062 39.921875 42.785156 40.058594 L 42.785156 40.742188 C 42.777344 40.960938 42.710938 41.15625 42.582031 41.332031 C 42.457031 41.503906 42.289062 41.628906 42.085938 41.703125 C 41.367188 41.988281 40.699219 42.359375 40.074219 42.8125 C 39.898438 42.949219 39.699219 43.023438 39.476562 43.042969 C 39.257812 43.058594 39.046875 43.015625 38.851562 42.914062 L 38.222656 42.566406 C 37.96875 42.425781 37.699219 42.390625 37.414062 42.464844 C 37.132812 42.535156 36.910156 42.695312 36.753906 42.941406 L 35.03125 45.78125 C 34.960938 45.898438 34.917969 46.027344 34.898438 46.164062 C 34.882812 46.300781 34.890625 46.433594 34.929688 46.566406 C 34.964844 46.699219 35.027344 46.816406 35.113281 46.921875 C 35.199219 47.03125 35.304688 47.117188 35.425781 47.179688 L 36.046875 47.523438 C 36.230469 47.617188 36.371094 47.753906 36.46875 47.9375 C 36.566406 48.121094 36.601562 48.3125 36.578125 48.515625 C 36.464844 49.296875 36.464844 50.078125 36.578125 50.859375 C 36.601562 51.0625 36.566406 51.257812 36.46875 51.4375 C 36.371094 51.621094 36.230469 51.757812 36.046875 51.855469 L 35.425781 52.195312 C 35.304688 52.261719 35.199219 52.34375 35.113281 52.453125 C 35.027344 52.558594 34.964844 52.679688 34.929688 52.8125 C 34.890625 52.941406 34.882812 53.078125 34.898438 53.214844 C 34.917969 53.347656 34.960938 53.476562 35.03125 53.59375 L 36.753906 56.433594 C 36.910156 56.679688 37.132812 56.839844 37.414062 56.914062 C 37.699219 56.984375 37.96875 56.949219 38.222656 56.808594 L 38.851562 56.460938 C 39.046875 56.359375 39.257812 56.316406 39.476562 56.335938 C 39.699219 56.351562 39.898438 56.429688 40.074219 56.5625 C 40.699219 57.015625 41.367188 57.386719 42.085938 57.671875 C 42.289062 57.746094 42.457031 57.871094 42.582031 58.046875 C 42.710938 58.21875 42.777344 58.414062 42.785156 58.632812 L 42.785156 59.316406 C 42.789062 59.457031 42.816406 59.589844 42.875 59.714844 C 42.929688 59.839844 43.007812 59.953125 43.109375 60.046875 C 43.207031 60.144531 43.324219 60.21875 43.453125 60.269531 C 43.582031 60.320312 43.714844 60.34375 43.855469 60.339844 L 47.300781 60.339844 C 47.4375 60.34375 47.570312 60.320312 47.703125 60.269531 C 47.832031 60.21875 47.945312 60.144531 48.046875 60.046875 C 48.144531 59.953125 48.222656 59.839844 48.28125 59.714844 C 48.335938 59.589844 48.363281 59.457031 48.367188 59.316406 L 48.367188 58.632812 C 48.375 58.414062 48.441406 58.21875 48.570312 58.046875 C 48.699219 57.871094 48.863281 57.746094 49.066406 57.671875 C 49.785156 57.386719 50.457031 57.015625 51.078125 56.5625 C 51.253906 56.429688 51.453125 56.351562 51.675781 56.335938 C 51.894531 56.316406 52.105469 56.359375 52.300781 56.460938 L 52.929688 56.808594 C 53.1875 56.949219 53.457031 56.984375 53.738281 56.914062 C 54.023438 56.839844 54.242188 56.679688 54.398438 56.433594 L 56.121094 53.59375 C 56.191406 53.476562 56.234375 53.347656 56.253906 53.210938 C 56.273438 53.078125 56.261719 52.941406 56.226562 52.8125 C 56.1875 52.679688 56.125 52.558594 56.039062 52.453125 C 55.953125 52.34375 55.847656 52.261719 55.726562 52.195312 L 55.105469 51.855469 C 54.921875 51.757812 54.78125 51.621094 54.683594 51.4375 C 54.585938 51.257812 54.550781 51.0625 54.574219 50.859375 C 54.6875 50.078125 54.6875 49.296875 54.574219 48.515625 C 54.550781 48.3125 54.585938 48.121094 54.683594 47.9375 C 54.78125 47.753906 54.921875 47.617188 55.105469 47.523438 L 55.726562 47.179688 C 55.847656 47.117188 55.953125 47.03125 56.039062 46.921875 C 56.125 46.816406 56.1875 46.699219 56.226562 46.566406 C 56.261719 46.433594 56.273438 46.300781 56.253906 46.164062 C 56.234375 46.027344 56.191406 45.898438 56.121094 45.78125 L 54.398438 42.941406 C 54.242188 42.695312 54.023438 42.535156 53.738281 42.464844 C 53.457031 42.390625 53.1875 42.425781 52.929688 42.566406 L 52.300781 42.914062 C 52.105469 43.015625 51.894531 43.058594 51.675781 43.042969 C 51.453125 43.023438 51.253906 42.949219 51.078125 42.8125 C 50.457031 42.359375 49.785156 41.988281 49.066406 41.703125 Z M 45.570312 53.832031 C 45.296875 53.832031 45.027344 53.804688 44.761719 53.75 C 44.492188 53.699219 44.234375 53.621094 43.980469 53.515625 C 43.726562 53.410156 43.488281 53.285156 43.261719 53.132812 C 43.035156 52.980469 42.824219 52.808594 42.632812 52.617188 C 42.4375 52.425781 42.265625 52.214844 42.113281 51.988281 C 41.960938 51.761719 41.835938 51.523438 41.730469 51.273438 C 41.625 51.023438 41.546875 50.761719 41.492188 50.496094 C 41.441406 50.230469 41.414062 49.960938 41.414062 49.6875 C 41.414062 49.414062 41.441406 49.148438 41.492188 48.878906 C 41.546875 48.613281 41.625 48.355469 41.730469 48.101562 C 41.835938 47.851562 41.960938 47.613281 42.113281 47.386719 C 42.265625 47.160156 42.4375 46.949219 42.632812 46.757812 C 42.824219 46.566406 43.035156 46.394531 43.261719 46.242188 C 43.488281 46.09375 43.726562 45.964844 43.980469 45.859375 C 44.234375 45.757812 44.492188 45.679688 44.761719 45.625 C 45.027344 45.570312 45.296875 45.546875 45.570312 45.546875 C 45.84375 45.546875 46.113281 45.570312 46.382812 45.625 C 46.652344 45.679688 46.910156 45.757812 47.164062 45.859375 C 47.414062 45.964844 47.65625 46.09375 47.882812 46.242188 C 48.109375 46.394531 48.320312 46.566406 48.511719 46.757812 C 48.703125 46.949219 48.878906 47.160156 49.027344 47.386719 C 49.179688 47.613281 49.308594 47.851562 49.414062 48.101562 C 49.519531 48.355469 49.597656 48.613281 49.648438 48.878906 C 49.703125 49.148438 49.730469 49.414062 49.730469 49.6875 C 49.730469 49.960938 49.703125 50.230469 49.648438 50.496094 C 49.597656 50.761719 49.519531 51.023438 49.414062 51.273438 C 49.308594 51.523438 49.179688 51.761719 49.027344 51.988281 C 48.878906 52.214844 48.703125 52.425781 48.511719 52.617188 C 48.320312 52.808594 48.109375 52.980469 47.882812 53.132812 C 47.65625 53.285156 47.414062 53.410156 47.164062 53.515625 C 46.910156 53.621094 46.652344 53.699219 46.382812 53.75 C 46.113281 53.804688 45.84375 53.832031 45.570312 53.832031 Z M 45.570312 53.832031 " fill-opacity="1" fill-rule="nonzero"/><path fill="#ffffff" d="M 21.8125 11.8125 L 27.75 11.8125 L 27.75 14.179688 L 21.8125 14.179688 Z M 21.8125 11.8125 " fill-opacity="1" fill-rule="nonzero"/><path fill="#ffffff" d="M 24.1875 16.546875 L 30.128906 16.546875 L 30.128906 18.914062 L 24.1875 18.914062 Z M 24.1875 16.546875 " fill-opacity="1" fill-rule="nonzero"/><g clip-path="url(#id3)"><path fill="#ffffff" d="M 11.355469 71.425781 C 11.734375 71.804688 12.140625 72.144531 12.582031 72.445312 C 13.019531 72.75 13.480469 73.011719 13.96875 73.230469 C 14.453125 73.449219 14.957031 73.625 15.472656 73.753906 C 15.992188 73.886719 16.515625 73.96875 17.050781 74.003906 C 17.582031 74.039062 18.113281 74.027344 18.644531 73.964844 C 19.175781 73.90625 19.695312 73.796875 20.207031 73.644531 C 20.71875 73.488281 21.210938 73.292969 21.6875 73.050781 C 22.160156 72.808594 22.609375 72.523438 23.035156 72.199219 L 24.882812 74.042969 L 24.238281 74.6875 C 24.128906 74.800781 24.042969 74.925781 23.980469 75.074219 C 23.921875 75.21875 23.890625 75.367188 23.890625 75.523438 C 23.890625 75.683594 23.921875 75.832031 23.980469 75.976562 C 24.042969 76.125 24.128906 76.25 24.238281 76.363281 L 29.191406 81.296875 C 29.304688 81.410156 29.433594 81.492188 29.578125 81.554688 C 29.722656 81.613281 29.875 81.644531 30.03125 81.644531 C 30.191406 81.644531 30.339844 81.613281 30.488281 81.554688 C 30.632812 81.492188 30.761719 81.410156 30.871094 81.296875 L 33.84375 78.339844 C 33.953125 78.226562 34.039062 78.101562 34.101562 77.953125 C 34.160156 77.808594 34.191406 77.660156 34.191406 77.5 C 34.191406 77.34375 34.160156 77.195312 34.101562 77.050781 C 34.039062 76.902344 33.953125 76.777344 33.84375 76.664062 L 28.886719 71.730469 C 28.773438 71.621094 28.644531 71.539062 28.5 71.484375 C 28.355469 71.425781 28.203125 71.398438 28.046875 71.398438 C 27.890625 71.398438 27.742188 71.425781 27.597656 71.484375 C 27.453125 71.539062 27.320312 71.621094 27.207031 71.730469 L 26.5625 72.371094 L 24.710938 70.527344 C 25.054688 70.078125 25.355469 69.601562 25.605469 69.09375 C 25.859375 68.585938 26.058594 68.0625 26.210938 67.515625 C 26.359375 66.972656 26.457031 66.417969 26.503906 65.855469 C 26.546875 65.292969 26.539062 64.730469 26.472656 64.167969 C 26.410156 63.605469 26.292969 63.058594 26.125 62.515625 C 25.957031 61.976562 25.738281 61.460938 25.46875 60.960938 C 25.199219 60.464844 24.886719 59.996094 24.527344 59.558594 C 24.167969 59.121094 23.773438 58.722656 23.335938 58.359375 C 22.902344 57.996094 22.4375 57.679688 21.9375 57.40625 C 21.441406 57.132812 20.925781 56.910156 20.386719 56.734375 C 19.847656 56.5625 19.296875 56.4375 18.734375 56.371094 C 18.167969 56.300781 17.605469 56.285156 17.039062 56.320312 C 16.472656 56.359375 15.917969 56.453125 15.367188 56.597656 C 14.820312 56.738281 14.289062 56.933594 13.78125 57.179688 C 13.269531 57.425781 12.785156 57.714844 12.332031 58.054688 C 11.875 58.390625 11.457031 58.769531 11.074219 59.1875 C 10.691406 59.601562 10.351562 60.050781 10.058594 60.535156 C 9.761719 61.015625 9.511719 61.519531 9.3125 62.050781 C 9.113281 62.578125 8.96875 63.121094 8.875 63.679688 C 8.777344 64.238281 8.738281 64.796875 8.75 65.363281 C 8.761719 65.925781 8.828125 66.484375 8.949219 67.039062 C 9.070312 67.589844 9.242188 68.125 9.464844 68.644531 C 9.6875 69.164062 9.957031 69.65625 10.277344 70.125 C 10.59375 70.59375 10.953125 71.027344 11.355469 71.425781 Z M 22.265625 60.558594 C 22.570312 60.859375 22.839844 61.1875 23.082031 61.542969 C 23.320312 61.898438 23.519531 62.273438 23.683594 62.667969 C 23.847656 63.066406 23.972656 63.472656 24.054688 63.890625 C 24.140625 64.308594 24.179688 64.734375 24.179688 65.160156 C 24.179688 65.589844 24.140625 66.011719 24.054688 66.429688 C 23.972656 66.851562 23.847656 67.257812 23.683594 67.652344 C 23.519531 68.046875 23.320312 68.421875 23.082031 68.777344 C 22.84375 69.132812 22.570312 69.460938 22.269531 69.765625 C 21.964844 70.066406 21.632812 70.335938 21.277344 70.574219 C 20.921875 70.8125 20.542969 71.011719 20.148438 71.175781 C 19.75 71.339844 19.34375 71.460938 18.921875 71.546875 C 18.5 71.628906 18.078125 71.671875 17.648438 71.671875 C 17.21875 71.671875 16.792969 71.628906 16.371094 71.546875 C 15.953125 71.460938 15.542969 71.339844 15.148438 71.175781 C 14.75 71.011719 14.375 70.8125 14.015625 70.574219 C 13.660156 70.335938 13.332031 70.066406 13.027344 69.765625 C 12.722656 69.460938 12.453125 69.132812 12.214844 68.777344 C 11.976562 68.421875 11.773438 68.046875 11.609375 67.652344 C 11.445312 67.257812 11.324219 66.851562 11.238281 66.429688 C 11.15625 66.011719 11.113281 65.589844 11.113281 65.160156 C 11.113281 64.734375 11.15625 64.308594 11.238281 63.890625 C 11.324219 63.472656 11.445312 63.066406 11.609375 62.667969 C 11.773438 62.273438 11.976562 61.898438 12.214844 61.542969 C 12.453125 61.1875 12.722656 60.859375 13.027344 60.558594 C 13.332031 60.253906 13.660156 59.984375 14.015625 59.75 C 14.375 59.511719 14.75 59.3125 15.148438 59.148438 C 15.542969 58.984375 15.953125 58.859375 16.371094 58.777344 C 16.792969 58.695312 17.21875 58.652344 17.648438 58.652344 C 18.074219 58.652344 18.5 58.695312 18.921875 58.777344 C 19.34375 58.859375 19.75 58.984375 20.148438 59.148438 C 20.542969 59.3125 20.917969 59.511719 21.277344 59.75 C 21.632812 59.984375 21.964844 60.253906 22.265625 60.558594 Z M 22.265625 60.558594 " fill-opacity="1" fill-rule="nonzero"/></g><path fill="#ffffff" d="M 51.511719 28.382812 L 52.699219 28.382812 C 52.699219 28.113281 52.726562 27.84375 52.78125 27.574219 C 52.832031 27.308594 52.910156 27.050781 53.015625 26.796875 C 53.121094 26.546875 53.25 26.308594 53.402344 26.082031 C 53.550781 25.855469 53.726562 25.648438 53.917969 25.453125 C 54.109375 25.261719 54.320312 25.089844 54.546875 24.9375 C 54.773438 24.789062 55.015625 24.660156 55.265625 24.554688 C 55.519531 24.453125 55.777344 24.375 56.046875 24.320312 C 56.316406 24.265625 56.585938 24.242188 56.859375 24.242188 C 57.132812 24.242188 57.402344 24.265625 57.667969 24.320312 C 57.9375 24.375 58.195312 24.453125 58.449219 24.554688 C 58.703125 24.660156 58.941406 24.789062 59.167969 24.9375 C 59.394531 25.089844 59.605469 25.261719 59.796875 25.453125 C 59.992188 25.648438 60.164062 25.855469 60.316406 26.082031 C 60.46875 26.308594 60.59375 26.546875 60.699219 26.796875 C 60.804688 27.050781 60.882812 27.308594 60.9375 27.574219 C 60.988281 27.84375 61.015625 28.113281 61.015625 28.382812 L 62.203125 28.382812 L 62.203125 17.730469 L 57.453125 11.8125 L 51.511719 11.8125 Z M 53.886719 14.179688 L 56.859375 14.179688 L 59.828125 17.730469 L 53.886719 17.730469 Z M 53.886719 14.179688 " fill-opacity="1" fill-rule="nonzero"/></svg>